<svg width="237" height="189" viewBox="0 0 237 189" fill="none" xmlns="http://www.w3.org/2000/svg">
<path d="M70.8459 20.3509L74.457 29.9016L78.0595 20.3509H80.871V32.8114H78.7043V28.7035L78.9193 23.2093L75.2222 32.8114H73.666L69.9775 23.2178L70.1924 28.7035V32.8114H68.0258V20.3509H70.8459Z" fill="white"/>
<path d="M86.5026 29.8332L88.3941 23.5516H90.621L86.9239 34.2149C86.3565 35.7724 85.3935 36.5512 84.035 36.5512C83.7312 36.5512 83.3959 36.4999 83.0291 36.3972V34.7883L83.4246 34.8139C83.9519 34.8139 84.3474 34.7169 84.6111 34.523C84.8805 34.3347 85.0926 34.0152 85.2473 33.5645L85.5482 32.7686L82.2811 23.5516H84.5337L86.5026 29.8332Z" fill="white"/>
<path d="M98.875 26.0847C98.875 26.4955 98.7489 26.8749 98.4967 27.223C98.2502 27.5653 97.9005 27.8391 97.4477 28.0445C98.5139 28.4154 99.0469 29.1314 99.0469 30.1926C99.0469 31.0427 98.7001 31.7216 98.0066 32.2294C97.313 32.7315 96.3844 32.9825 95.2209 32.9825C94.5101 32.9825 93.8624 32.8656 93.2777 32.6316C92.6931 32.392 92.2374 32.0554 91.9107 31.6218C91.584 31.1825 91.4206 30.6633 91.4206 30.0642H93.5013C93.5013 30.4408 93.6704 30.7574 94.0086 31.0142C94.3467 31.2652 94.7738 31.3907 95.2896 31.3907C95.7998 31.3907 96.2039 31.2738 96.5019 31.0398C96.8057 30.8002 96.9576 30.4893 96.9576 30.107C96.9576 29.6563 96.8258 29.3311 96.5621 29.1314C96.2985 28.9317 95.8915 28.8319 95.3412 28.8319H93.8452V27.3342H95.3928C96.3271 27.3228 96.7943 26.9406 96.7943 26.1874C96.7943 25.8109 96.6596 25.5171 96.3902 25.306C96.1208 25.0949 95.7511 24.9893 95.281 24.9893C94.8225 24.9893 94.4356 25.1034 94.1203 25.3316C93.8051 25.5542 93.6474 25.8366 93.6474 26.1789H91.5668C91.5668 25.363 91.9107 24.6955 92.5985 24.1763C93.2863 23.6514 94.1605 23.389 95.2209 23.389C96.373 23.389 97.27 23.6229 97.912 24.0907C98.554 24.5586 98.875 25.2232 98.875 26.0847Z" fill="white"/>
<path d="M103.071 26.4955H105.117C105.879 26.4955 106.544 26.6268 107.112 26.8892C107.679 27.1516 108.109 27.5196 108.401 27.9932C108.699 28.4667 108.848 29.0173 108.848 29.6449C108.848 30.5977 108.51 31.3622 107.834 31.9384C107.158 32.5147 106.258 32.8056 105.134 32.8114H100.981V23.5516H103.071V26.4955ZM112.485 32.8114H110.396V23.5516H112.485V32.8114ZM103.071 28.1643V31.1511H105.108C105.619 31.1511 106.02 31.0256 106.312 30.7745C106.61 30.5178 106.759 30.1555 106.759 29.6877C106.759 29.2198 106.613 28.8518 106.321 28.5837C106.034 28.3098 105.644 28.1701 105.151 28.1643H103.071Z" fill="white"/>
<path d="M118.298 29.1485H117.24V32.8114H115.151V23.5516H117.24V27.2486H118.16L120.731 23.5516H123.31L119.948 27.9846L123.594 32.8114H120.877L118.298 29.1485Z" fill="white"/>
<path d="M130.3 32.8114C130.208 32.6345 130.128 32.3464 130.059 31.947C129.395 32.6373 128.581 32.9825 127.618 32.9825C126.683 32.9825 125.921 32.7172 125.331 32.1866C124.74 31.656 124.445 30.9999 124.445 30.2183C124.445 29.2312 124.812 28.4753 125.546 27.9504C126.285 27.4198 127.34 27.1545 128.71 27.1545H129.991V26.5469C129.991 26.0676 129.856 25.6854 129.587 25.4001C129.317 25.1091 128.907 24.9636 128.357 24.9636C127.881 24.9636 127.492 25.0835 127.188 25.3231C126.884 25.557 126.732 25.8565 126.732 26.2217H124.643C124.643 25.7139 124.812 25.2404 125.15 24.801C125.488 24.356 125.947 24.008 126.526 23.757C127.11 23.5059 127.761 23.3804 128.477 23.3804C129.567 23.3804 130.435 23.6543 131.083 24.202C131.73 24.744 132.063 25.5085 132.08 26.4955V30.6718C132.08 31.5048 132.197 32.1695 132.432 32.6659V32.8114H130.3ZM128.005 31.3137C128.417 31.3137 128.804 31.2139 129.165 31.0142C129.532 30.8145 129.807 30.5463 129.991 30.2097V28.4639H128.864C128.091 28.4639 127.509 28.598 127.119 28.8661C126.729 29.1343 126.534 29.5137 126.534 30.0043C126.534 30.4037 126.666 30.7232 126.93 30.9628C127.199 31.1967 127.557 31.3137 128.005 31.3137Z" fill="white"/>
<path d="M142.174 23.5516V32.8114H140.085V25.229H137.454L137.282 28.4553C137.173 30.0072 136.872 31.1226 136.379 31.8015C135.892 32.4747 135.144 32.8114 134.135 32.8114H133.49L133.481 31.0826L133.911 31.0398C134.37 30.9771 134.702 30.7004 134.909 30.2097C135.121 29.7134 135.255 28.8119 135.313 27.5054L135.485 23.5516H142.174Z" fill="white"/>
<path d="M146.645 26.4955H148.691C149.453 26.4955 150.118 26.6268 150.686 26.8892C151.253 27.1516 151.683 27.5196 151.975 27.9932C152.274 28.4667 152.423 29.0173 152.423 29.6449C152.423 30.5977 152.084 31.3622 151.408 31.9384C150.732 32.5147 149.832 32.8056 148.708 32.8114H144.555V23.5516H146.645V26.4955ZM146.645 28.1643V31.1511H148.682C149.193 31.1511 149.594 31.0256 149.886 30.7745C150.184 30.5178 150.333 30.1555 150.333 29.6877C150.333 29.2198 150.187 28.8518 149.895 28.5837C149.608 28.3098 149.218 28.1701 148.725 28.1643H146.645Z" fill="white"/>
<path d="M161.975 32.8114H159.885V29.0715H156.266V32.8114H154.177V23.5516H156.266V27.4112H159.885V23.5516H161.975V32.8114Z" fill="white"/>
<path d="M166.454 26.4955H168.501C169.263 26.4955 169.928 26.6268 170.495 26.8892C171.063 27.1516 171.493 27.5196 171.785 27.9932C172.083 28.4667 172.232 29.0173 172.232 29.6449C172.232 30.5977 171.894 31.3622 171.218 31.9384C170.541 32.5147 169.641 32.8056 168.518 32.8114H164.365V23.5516H166.454V26.4955ZM175.869 32.8114H173.78V23.5516H175.869V32.8114ZM166.454 28.1643V31.1511H168.492C169.002 31.1511 169.403 31.0256 169.696 30.7745C169.994 30.5178 170.143 30.1555 170.143 29.6877C170.143 29.2198 169.997 28.8518 169.704 28.5837C169.418 28.3098 169.028 28.1701 168.535 28.1643H166.454Z" fill="white"/>
<path d="M184.183 23.5516H186.264V32.8114H184.183V26.6325L180.538 32.8114H178.457V23.5516H180.538V29.7305L184.183 23.5516ZM185.163 20C185.163 20.7189 184.911 21.3008 184.407 21.7458C183.902 22.1909 183.229 22.4134 182.386 22.4134C181.544 22.4134 180.87 22.1909 180.366 21.7458C179.861 21.3008 179.609 20.7189 179.609 20H181.174C181.174 20.3766 181.28 20.6704 181.492 20.8815C181.71 21.0869 182.008 21.1896 182.386 21.1896C182.764 21.1896 183.06 21.0869 183.272 20.8815C183.484 20.6704 183.59 20.3766 183.59 20H185.163Z" fill="white"/>
<path d="M200.192 25.2033H197.174V32.8114H195.085V25.2033H192.102V23.5516H200.192V25.2033Z" fill="white"/>
<path d="M205.136 32.9825C203.812 32.9825 202.737 32.5689 201.912 31.7416C201.092 30.9086 200.682 29.8018 200.682 28.4211V28.1643C200.682 27.2401 200.86 26.4157 201.215 25.6911C201.577 24.9608 202.081 24.3931 202.729 23.988C203.376 23.583 204.099 23.3804 204.895 23.3804C206.162 23.3804 207.139 23.7826 207.827 24.5871C208.521 25.3916 208.868 26.5298 208.868 28.0017V28.8404H202.789C202.852 29.6049 203.107 30.2097 203.554 30.6547C204.007 31.0997 204.574 31.3223 205.257 31.3223C206.214 31.3223 206.993 30.9371 207.595 30.1669L208.721 31.2367C208.349 31.7901 207.85 32.2208 207.225 32.5289C206.606 32.8313 205.91 32.9825 205.136 32.9825ZM204.887 25.0492C204.314 25.0492 203.849 25.2489 203.494 25.6483C203.144 26.0477 202.921 26.6039 202.823 27.3171H206.804V27.1631C206.758 26.467 206.572 25.9421 206.245 25.5884C205.919 25.2289 205.466 25.0492 204.887 25.0492Z" fill="white"/>
<path d="M216.055 32.8114C215.964 32.6345 215.883 32.3464 215.815 31.947C215.15 32.6373 214.336 32.9825 213.373 32.9825C212.439 32.9825 211.676 32.7172 211.086 32.1866C210.495 31.656 210.2 30.9999 210.2 30.2183C210.2 29.2312 210.567 28.4753 211.301 27.9504C212.04 27.4198 213.095 27.1545 214.465 27.1545H215.746V26.5469C215.746 26.0676 215.611 25.6854 215.342 25.4001C215.072 25.1091 214.663 24.9636 214.112 24.9636C213.637 24.9636 213.247 25.0835 212.943 25.3231C212.639 25.557 212.487 25.8565 212.487 26.2217H210.398C210.398 25.7139 210.567 25.2404 210.905 24.801C211.243 24.356 211.702 24.008 212.281 23.757C212.866 23.5059 213.516 23.3804 214.233 23.3804C215.322 23.3804 216.19 23.6543 216.838 24.202C217.486 24.744 217.818 25.5085 217.835 26.4955V30.6718C217.835 31.5048 217.953 32.1695 218.188 32.6659V32.8114H216.055ZM213.76 31.3137C214.172 31.3137 214.559 31.2139 214.921 31.0142C215.287 30.8145 215.562 30.5463 215.746 30.2097V28.4639H214.62C213.846 28.4639 213.264 28.598 212.874 28.8661C212.484 29.1343 212.29 29.5137 212.29 30.0043C212.29 30.4037 212.421 30.7232 212.685 30.9628C212.954 31.1967 213.313 31.3137 213.76 31.3137Z" fill="white"/>
<path d="M227.207 25.2033H224.189V32.8114H222.1V25.2033H219.116V23.5516H227.207V25.2033Z" fill="white"/>
<path d="M236.751 28.2756C236.751 29.7076 236.424 30.8516 235.77 31.7074C235.117 32.5575 234.24 32.9825 233.139 32.9825C232.119 32.9825 231.302 32.6487 230.689 31.9812V36.3715H228.6V23.5516H230.526L230.612 24.493C231.225 23.7513 232.059 23.3804 233.114 23.3804C234.249 23.3804 235.137 23.8026 235.779 24.647C236.427 25.4857 236.751 26.6524 236.751 28.1472V28.2756ZM234.67 28.0959C234.67 27.1716 234.484 26.4385 234.111 25.8965C233.744 25.3545 233.217 25.0835 232.529 25.0835C231.675 25.0835 231.062 25.4343 230.689 26.1361V30.2439C231.067 30.9628 231.686 31.3223 232.546 31.3223C233.211 31.3223 233.73 31.057 234.102 30.5264C234.481 29.9901 234.67 29.1799 234.67 28.0959Z" fill="white"/>
<path d="M128.392 47.7223H130.145C130.3 46.5413 130.759 45.597 131.521 44.8896C132.283 44.1821 133.246 43.8284 134.41 43.8284C135.665 43.8284 136.683 44.2306 137.462 45.0351C138.248 45.8395 138.672 46.9064 138.735 48.2358L138.743 48.7236C138.743 49.6364 138.566 50.4523 138.21 51.1712C137.861 51.89 137.356 52.4463 136.697 52.84C136.044 53.2336 135.287 53.4305 134.427 53.4305C133.224 53.4305 132.235 53.0596 131.461 52.3179C130.693 51.5762 130.249 50.6006 130.128 49.3911H128.392V53.2593H126.302V43.9995H128.392V47.7223ZM132.183 48.7236C132.183 49.6764 132.381 50.4238 132.776 50.9658C133.172 51.5021 133.722 51.7702 134.427 51.7702C135.132 51.7702 135.68 51.4964 136.069 50.9486C136.459 50.4009 136.654 49.5993 136.654 48.5438C136.654 47.591 136.451 46.8465 136.044 46.3102C135.642 45.7682 135.098 45.4972 134.41 45.4972C133.728 45.4972 133.186 45.7682 132.785 46.3102C132.384 46.8465 132.183 47.651 132.183 48.7236Z" fill="white"/>
<path d="M148.347 53.2593H146.258V49.5195H142.638V53.2593H140.549V43.9995H142.638V47.8592H146.258V43.9995H148.347V53.2593Z" fill="white"/>
<path d="M150.187 48.5438C150.187 47.6367 150.368 46.8208 150.729 46.0962C151.09 45.366 151.597 44.8068 152.251 44.4189C152.904 44.0252 153.655 43.8284 154.503 43.8284C155.759 43.8284 156.776 44.2306 157.556 45.0351C158.341 45.8395 158.765 46.9064 158.828 48.2358L158.837 48.7236C158.837 49.6364 158.659 50.4523 158.304 51.1712C157.954 51.89 157.449 52.4463 156.79 52.84C156.137 53.2336 155.38 53.4305 154.52 53.4305C153.208 53.4305 152.156 52.9969 151.365 52.1297C150.58 51.2567 150.187 50.0957 150.187 48.6465V48.5438ZM152.276 48.7236C152.276 49.6764 152.474 50.4238 152.87 50.9658C153.265 51.5021 153.815 51.7702 154.52 51.7702C155.225 51.7702 155.773 51.4964 156.163 50.9486C156.558 50.4009 156.756 49.5993 156.756 48.5438C156.756 47.6082 156.552 46.8665 156.145 46.3188C155.744 45.771 155.197 45.4972 154.503 45.4972C153.821 45.4972 153.28 45.7682 152.878 46.3102C152.477 46.8465 152.276 47.651 152.276 48.7236Z" fill="white"/>
<path d="M166.798 45.6769H162.757V53.2593H160.677V43.9995H166.798V45.6769Z" fill="white"/>
<path d="M167.417 48.5438C167.417 47.6367 167.598 46.8208 167.959 46.0962C168.32 45.366 168.827 44.8068 169.481 44.4189C170.134 44.0252 170.885 43.8284 171.733 43.8284C172.989 43.8284 174.006 44.2306 174.786 45.0351C175.571 45.8395 175.995 46.9064 176.058 48.2358L176.067 48.7236C176.067 49.6364 175.889 50.4523 175.534 51.1712C175.184 51.89 174.68 52.4463 174.02 52.84C173.367 53.2336 172.61 53.4305 171.751 53.4305C170.438 53.4305 169.386 52.9969 168.595 52.1297C167.81 51.2567 167.417 50.0957 167.417 48.6465V48.5438ZM169.507 48.7236C169.507 49.6764 169.704 50.4238 170.1 50.9658C170.495 51.5021 171.046 51.7702 171.751 51.7702C172.456 51.7702 173.003 51.4964 173.393 50.9486C173.788 50.4009 173.986 49.5993 173.986 48.5438C173.986 47.6082 173.783 46.8665 173.376 46.3188C172.974 45.771 172.427 45.4972 171.733 45.4972C171.051 45.4972 170.51 45.7682 170.108 46.3102C169.707 46.8465 169.507 47.651 169.507 48.7236Z" fill="white"/>
<path d="M187.777 53.2593C187.685 53.0824 187.605 52.7943 187.536 52.395C186.871 53.0853 186.057 53.4305 185.095 53.4305C184.16 53.4305 183.398 53.1652 182.807 52.6346C182.217 52.104 181.922 51.4479 181.922 50.6662C181.922 49.6792 182.289 48.9232 183.022 48.3984C183.762 47.8678 184.817 47.6025 186.186 47.6025H187.468V46.9948C187.468 46.5156 187.333 46.1333 187.063 45.8481C186.794 45.5571 186.384 45.4116 185.834 45.4116C185.358 45.4116 184.968 45.5314 184.665 45.771C184.361 46.005 184.209 46.3045 184.209 46.6696H182.12C182.12 46.1619 182.289 45.6883 182.627 45.249C182.965 44.804 183.424 44.456 184.003 44.2049C184.587 43.9539 185.238 43.8284 185.954 43.8284C187.043 43.8284 187.912 44.1022 188.559 44.6499C189.207 45.192 189.54 45.9565 189.557 46.9435V51.1198C189.557 51.9528 189.674 52.6175 189.909 53.1138V53.2593H187.777ZM185.481 51.7617C185.894 51.7617 186.281 51.6618 186.642 51.4621C187.009 51.2624 187.284 50.9943 187.468 50.6577V48.9118H186.341C185.567 48.9118 184.986 49.0459 184.596 49.3141C184.206 49.5822 184.011 49.9616 184.011 50.4523C184.011 50.8517 184.143 51.1712 184.407 51.4108C184.676 51.6447 185.034 51.7617 185.481 51.7617Z" fill="white"/>
<path d="M195.051 49.5965H193.993V53.2593H191.904V43.9995H193.993V47.6966H194.913L197.484 43.9995H200.063L196.702 48.4326L200.347 53.2593H197.63L195.051 49.5965Z" fill="white"/>
<path d="M208.816 45.6512H205.798V53.2593H203.709V45.6512H200.725V43.9995H208.816V45.6512Z" fill="white"/>
<path d="M213.76 53.4305C212.436 53.4305 211.361 53.0168 210.536 52.1896C209.716 51.3566 209.306 50.2497 209.306 48.869V48.6123C209.306 47.688 209.484 46.8636 209.839 46.139C210.2 45.4088 210.705 44.8411 211.352 44.436C212 44.0309 212.722 43.8284 213.519 43.8284C214.786 43.8284 215.763 44.2306 216.451 45.0351C217.145 45.8395 217.491 46.9777 217.491 48.4497V49.2884H211.413C211.476 50.0529 211.731 50.6577 212.178 51.1027C212.631 51.5477 213.198 51.7702 213.88 51.7702C214.837 51.7702 215.617 51.3851 216.219 50.6149L217.345 51.6846C216.973 52.2381 216.474 52.6688 215.849 52.9769C215.23 53.2793 214.534 53.4305 213.76 53.4305ZM213.511 45.4972C212.937 45.4972 212.473 45.6969 212.118 46.0962C211.768 46.4956 211.544 47.0519 211.447 47.7651H215.428V47.611C215.382 46.915 215.196 46.3901 214.869 46.0363C214.542 45.6769 214.089 45.4972 213.511 45.4972ZM210.321 41.5691C210.321 41.2838 210.415 41.0442 210.604 40.8502C210.799 40.6562 211.066 40.5592 211.404 40.5592C211.742 40.5592 212.009 40.6562 212.204 40.8502C212.399 41.0442 212.496 41.2838 212.496 41.5691C212.496 41.8543 212.399 42.0939 212.204 42.2879C212.009 42.4819 211.742 42.5789 211.404 42.5789C211.066 42.5789 210.799 42.4819 210.604 42.2879C210.415 42.0939 210.321 41.8543 210.321 41.5691ZM214.25 41.5776C214.25 41.2923 214.344 41.0527 214.534 40.8587C214.729 40.6648 214.995 40.5678 215.333 40.5678C215.671 40.5678 215.938 40.6648 216.133 40.8587C216.328 41.0527 216.425 41.2923 216.425 41.5776C216.425 41.8629 216.328 42.1025 216.133 42.2965C215.938 42.4905 215.671 42.5875 215.333 42.5875C214.995 42.5875 214.729 42.4905 214.534 42.2965C214.344 42.1025 214.25 41.8629 214.25 41.5776Z" fill="white"/>
<path d="M227.267 48.7236C227.267 50.1556 226.94 51.2995 226.287 52.1553C225.634 53.0054 224.757 53.4305 223.656 53.4305C222.636 53.4305 221.819 53.0967 221.206 52.4292V56.8194H219.116V43.9995H221.042L221.128 44.9409C221.742 44.1992 222.576 43.8284 223.63 43.8284C224.765 43.8284 225.654 44.2506 226.296 45.095C226.943 45.9336 227.267 47.1004 227.267 48.5952V48.7236ZM225.186 48.5438C225.186 47.6196 225 46.8864 224.628 46.3444C224.261 45.8024 223.733 45.5314 223.046 45.5314C222.191 45.5314 221.578 45.8823 221.206 46.5841V50.6919C221.584 51.4108 222.203 51.7702 223.063 51.7702C223.728 51.7702 224.246 51.5049 224.619 50.9743C224.997 50.438 225.186 49.6279 225.186 48.5438Z" fill="white"/>
<path d="M234.601 53.2593C234.509 53.0824 234.429 52.7943 234.36 52.395C233.695 53.0853 232.882 53.4305 231.919 53.4305C230.984 53.4305 230.222 53.1652 229.632 52.6346C229.041 52.104 228.746 51.4479 228.746 50.6662C228.746 49.6792 229.113 48.9232 229.846 48.3984C230.586 47.8678 231.641 47.6025 233.01 47.6025H234.292V46.9948C234.292 46.5156 234.157 46.1333 233.887 45.8481C233.618 45.5571 233.208 45.4116 232.658 45.4116C232.182 45.4116 231.792 45.5314 231.489 45.771C231.185 46.005 231.033 46.3045 231.033 46.6696H228.944C228.944 46.1619 229.113 45.6883 229.451 45.249C229.789 44.804 230.248 44.456 230.827 44.2049C231.411 43.9539 232.062 43.8284 232.778 43.8284C233.867 43.8284 234.736 44.1022 235.384 44.6499C236.031 45.192 236.364 45.9565 236.381 46.9435V51.1198C236.381 51.9528 236.498 52.6175 236.733 53.1138V53.2593H234.601ZM232.305 51.7617C232.718 51.7617 233.105 51.6618 233.466 51.4621C233.833 51.2624 234.108 50.9943 234.292 50.6577V48.9118H233.165C232.391 48.9118 231.81 49.0459 231.42 49.3141C231.03 49.5822 230.835 49.9616 230.835 50.4523C230.835 50.8517 230.967 51.1712 231.231 51.4108C231.5 51.6447 231.858 51.7617 232.305 51.7617Z" fill="white"/>
<path fill-rule="evenodd" clip-rule="evenodd" d="M148.022 73.5801L157.727 84.5L148.022 95.4199L138.316 84.5L148.022 73.5801ZM148.022 76.15L140.6 84.5L148.022 92.85L155.443 84.5L148.022 76.15Z" fill="white"/>
<path fill-rule="evenodd" clip-rule="evenodd" d="M162.277 73.5801L173.125 84.4115L163.983 93.5812V95.4199H162.277V73.5801ZM163.983 91.0619L170.761 84.4205L163.983 77.8773V91.0619Z" fill="white"/>
<path fill-rule="evenodd" clip-rule="evenodd" d="M218.501 73.5801H220.214V90.4429L235.023 75.7317V92.6543H233.31V80.7087L218.501 95.4199V73.5801Z" fill="white"/>
<path fill-rule="evenodd" clip-rule="evenodd" d="M225.877 75.8526L224.086 74.7528L223.194 76.2248L226.124 78.0242L228.625 75.5521L227.425 74.3218L225.877 75.8526Z" fill="white"/>
<path fill-rule="evenodd" clip-rule="evenodd" d="M187.056 73.5801L197.086 84.6172L187.931 93.4039V95.4199H186.224V93.4039L177.675 84.6158L187.056 73.5801ZM187.931 91.0346L194.702 84.5355L187.931 77.0837V91.0346ZM186.224 77.0837V91.0346L179.985 84.5369L186.224 77.0837Z" fill="white"/>
<path d="M201.082 84.5L210.788 95.4199V92.85L203.877 85.3621H211.358V83.6379H203.877L210.788 76.15V73.5801L201.082 84.5Z" fill="white"/>
<path fill-rule="evenodd" clip-rule="evenodd" d="M148.022 72.0991L159.044 84.5L148.022 96.9009L137 84.5L148.022 72.0991ZM138.316 84.5L148.022 95.4199L157.727 84.5L148.022 73.5801L138.316 84.5ZM161.301 71.213L174.517 84.4099L164.959 93.9962V96.4126H161.301V71.213ZM163.983 93.5812L173.125 84.4115L162.277 73.5801V95.4199H163.983V93.5812ZM217.525 72.5874H221.191V88.0843L236 73.3731V93.647H232.334V83.0673L217.525 97.7785V72.5874ZM233.31 80.7087V92.6543H235.023V75.7317L220.214 90.4429V73.5801H218.501V95.4199L233.31 80.7087ZM226.124 78.0242L223.194 76.2248L224.086 74.7528L225.877 75.8526L227.425 74.3218L228.625 75.5521L226.124 78.0242ZM225.736 74.6065L227.438 72.9245L230.013 75.565L226.265 79.2702L221.845 76.5568L223.762 73.3941L225.736 74.6065ZM187.032 72.0901L198.459 84.6649L188.907 93.8318V96.4126H185.247V93.8118L176.345 84.6612L187.032 72.0901ZM186.224 93.4039V95.4199H187.931V93.4039L197.086 84.6172L187.056 73.5801L177.675 84.6158L186.224 93.4039ZM179.985 84.5369L186.224 91.0346V77.0837L179.985 84.5369ZM185.247 79.7825L181.305 84.491L185.247 88.596V79.7825ZM199.766 84.5L211.765 71V76.5427L206.132 82.6452H212.335V86.3548H206.132L211.765 92.4573V98L199.766 84.5ZM203.877 85.3621H211.358V83.6379H203.877L210.788 76.15V73.5801L201.082 84.5L210.788 95.4199V92.85L203.877 85.3621ZM141.917 84.5L148.022 77.631L154.127 84.5L148.022 91.369L141.917 84.5ZM148.022 92.85L140.6 84.5L148.022 76.15L155.443 84.5L148.022 92.85ZM170.761 84.4205L163.983 77.8773V91.0619L170.761 84.4205ZM169.349 84.4258L164.959 80.1893V88.7259L169.349 84.4258ZM193.329 84.4878L188.907 79.6219V88.7316L193.329 84.4878ZM194.702 84.5355L187.931 77.0837V91.0346L194.702 84.5355Z" fill="white"/>
<path fill-rule="evenodd" clip-rule="evenodd" d="M19.035 57.1336C23.4837 54.7259 27.5882 54.5491 31.9847 57.3113C33.8237 58.4667 35.3354 60.1417 36.3713 61.4883C37.108 62.4461 37.7541 63.4508 38.3393 64.499C37.763 65.1277 37.1684 65.7376 36.5181 66.2975C36.7514 68.9336 39.4441 69.9129 40.0578 70.4352C40.8786 71.134 39.3708 73.2202 38.6774 74.072L37.7908 73.4101C38.6101 71.871 38.3393 71.2492 38.3393 71.2492C38.3393 71.2492 35.4466 69.2537 34.1877 67.8154C32.7726 68.8112 30.6761 68.4896 29.957 70.04C29.1908 71.6918 29.9816 74.4062 30.2823 75.6698C30.4253 76.2707 30.8321 77.5549 30.8321 77.5549C30.8321 77.5549 31.399 79.3685 31.6157 80.3203C31.8804 81.483 32.5308 82.4776 32.2937 85.2229C36.8608 83.3238 39.2096 83.6056 38.1523 79.3026L39.3954 76.1689L70.7186 70.8768C71.6314 68.3192 74.2054 66.5665 76.7887 65.939C79.343 65.3185 82.3126 65.7218 83.9159 67.9272C88.3338 67.1767 89.123 67.0759 92.4672 66.6485C92.824 66.6682 93.3237 66.7249 93.7041 66.9752C95.5477 68.1883 95.7945 72.0539 94.7305 73.9278C94.5694 74.2116 94.313 74.3711 94.1679 74.4503C90.9398 75.0247 87.9836 75.2249 84.7769 75.7355C84.5145 76.1878 84.0748 76.9529 83.5704 77.8604C82.7494 79.3376 81.7686 81.1711 81.0961 82.6492C76.8435 91.9954 76.9954 102.559 71.3177 111.426C71.0167 111.896 70.4793 112.087 70.1352 112.179C67.4926 112.885 62.0126 112.056 62.0126 112.056L56.4887 116.337L56.3468 114.479L60.5218 110.418C64.0652 105.947 67.2889 101.494 68.9732 97.3909C70.7444 93.0758 72.4978 87.9616 74.6582 83.686C74.9904 83.0286 75.5262 82.3373 76.0135 81.7084C76.8269 80.6589 79.388 78.7907 79.388 78.7907C79.388 78.7907 82.7888 73.1878 82.6042 72.4623L77.1384 73.7358L73.192 74.2401C69.5988 86.0115 60.4522 96.2325 52.5507 105.762C45.9786 102.827 36.8827 102.452 31.9573 102.132C26.9208 101.15 22.8956 99.7796 18.1579 101.878C14.7218 103.4 12.0898 109.53 12.6219 112.056C5.88252 93.8547 7.04104 83.4164 14.279 61.4883C15.3273 60.5114 16.8206 58.3321 19.035 57.1336ZM38.9374 84.3045C40.1745 83.5088 39.9616 81.4548 39.8813 80.1896C39.8757 80.1012 57.7528 78.5623 66.2444 77.8314C68.3265 77.6521 69.8443 77.5215 70.3959 77.4727C66.77 84.5512 62.1653 91.6312 56.0461 97.0259C56.0461 97.0259 48.5846 94.9342 44.3946 94.6853C43.2707 94.6186 42.1614 94.5691 41.0628 94.5201C38.0583 94.386 35.1339 94.2555 32.2107 93.7855L32.4222 86.6388C32.4222 86.6388 37.1422 85.4592 38.9374 84.3045Z" fill="white"/>
<path fill-rule="evenodd" clip-rule="evenodd" d="M138.212 159.415L132.911 164.639C132.64 166.572 134.56 169.514 135.087 169.301L131.573 171.078L129.783 167.26C129.675 167.006 129.511 166.341 129.456 166.118C128.714 163.582 124.302 162.551 118.237 161.135C106.654 158.431 95.3959 152.949 85.8219 146.031C85.8219 146.031 82.3477 149.463 79.344 153.6L80.0301 155.101C80.9152 156.797 81.6895 158.476 82.3719 160.247L82.5352 160.295C82.9201 160.411 83.4808 160.578 84.1835 160.788C85.589 161.207 87.5626 161.794 89.8346 162.465C94.3795 163.807 100.116 165.486 104.888 166.831C108.084 167.732 109.736 175.143 110.936 177.925L108.645 178.142C108.645 178.142 106.834 169.284 104.398 168.591C99.7607 167.368 94.2112 166.172 89.8114 165.279C87.612 164.833 85.7035 164.464 84.345 164.206L83.87 164.116L83.6583 164.076C84.1705 165.845 84.6174 167.751 85.0128 169.874C85.4114 172.014 86.0997 177.085 86.2004 178.01C65.5153 175.934 53.7638 168.016 43.6488 160.275C43.6488 160.275 44.0508 149.158 42.7151 142.103C41.1358 133.762 42.7151 119.346 42.7151 119.346C36.1638 118.711 33.7731 118.21 28.551 117.137L27.5078 114.236C27.5078 114.236 38.2821 116.49 46.1762 117.137C46.1762 117.137 46.1259 134.312 50.1474 141.579C52.0643 145.043 57.1588 149.22 57.1588 149.22C65.3944 141.203 71.5691 135.118 80.9072 128.94C82.8759 127.923 84.5856 127.469 86.2921 127.687C87.9842 127.904 89.5293 128.766 91.2035 130.069C94.4133 132.567 98.1866 134.537 101.628 136.693C112.709 143.636 122.477 154.152 135.437 157.266C140.347 158.003 145.762 157.342 150.471 155.771C152.31 154.984 153.959 156.222 154.878 157.815L153.693 158.854C152.19 155.979 149.189 157.018 147.163 157.815L147.954 162.699L142.537 165.866L141.709 159.341C140.616 159.475 139.487 159.498 138.212 159.415ZM77.8963 151.482C76.7811 149.488 76.7194 149.337 75.2604 147.034C74.1791 145.327 72.6638 143.254 71.4297 141.62C70.8105 140.8 70.3191 140.212 69.9214 139.702C73.619 136.447 77.3534 132.83 81.7444 130.562C83.5359 129.636 84.8593 129.345 86.0583 129.498C87.2717 129.654 88.5047 130.283 90.081 131.51C90.3868 131.748 91.8383 132.681 93.7514 133.894C95.6979 135.129 98.1944 136.698 100.657 138.241C102.811 139.59 104.672 140.98 106.168 142.098C107.186 142.858 108.035 143.492 108.694 143.903L101.941 152.143C96.2995 149.878 90.2429 145.938 85.4588 142.201L77.8963 151.482ZM114.584 148.001L109.049 156.179C108.008 155.988 105.91 154.735 104.973 154.288C104.973 154.288 108.591 149.343 110.99 145.402C111.66 145.999 112.309 146.427 112.973 146.863C113.495 147.207 114.026 147.557 114.584 148.001ZM112.045 157.378L116.684 149.601C117.748 150.414 118.905 151.262 120.137 152.109L115.741 158.278C114.465 157.941 113.313 157.731 112.045 157.378ZM117.806 158.66L121.654 153.126C122.715 153.818 123.817 154.496 124.943 155.134L121.415 159.68C120.426 159.512 119.236 159.191 117.806 158.66ZM123.284 160.266L126.365 156.195C127.076 156.564 127.877 156.841 128.657 157.111C129.105 157.265 129.545 157.418 129.958 157.584L126.147 161.293C125.216 160.927 124.26 160.587 123.284 160.266ZM127.958 162.059L131.847 158.271C132.969 158.634 134.753 159.005 135.837 159.168L131.165 163.853C129.035 162.154 127.894 162.051 127.958 162.059Z" fill="white"/>
<path d="M88.8439 1.45696C49.7969 5.94517 17.2748 34.9514 11.2955 74.3172C4.08386 121.796 38.213 166.364 87.5251 173.864C128.08 180.033 166.274 159.207 182.572 125.206L183.789 125.612C171.388 161.099 138.373 187.215 98.5506 188.913C46.3928 191.136 2.30926 150.629 0.0872661 98.4364C-2.10952 46.8358 37.4341 3.13274 88.7351 0L88.8439 1.45696Z" fill="white"/>
<path d="M236 107.802H137.034V110.341H236V107.802Z" fill="white"/>
</svg>
