<svg width="171" height="136" viewBox="0 0 171 136" fill="none" xmlns="http://www.w3.org/2000/svg">
<g opacity="0.98">
<path d="M51.1705 14.644L53.7787 21.5165L56.3808 14.644H58.4115V23.6103H56.8465V20.6544L57.0018 16.7008L54.3314 23.6103H53.2074L50.5433 16.707L50.6985 20.6544V23.6103H49.1336V14.644H51.1705Z" fill="black"/>
<path d="M62.4791 21.4673L63.8453 16.9472H65.4537L62.7833 24.6202C62.3735 25.741 61.6779 26.3014 60.6968 26.3014C60.4773 26.3014 60.2351 26.2645 59.9702 26.1906V25.0328L60.2558 25.0513C60.6367 25.0513 60.9224 24.9815 61.1128 24.8419C61.3074 24.7064 61.4606 24.4765 61.5724 24.1522L61.7897 23.5795L59.4299 16.9472H61.0569L62.4791 21.4673Z" fill="black"/>
<path d="M71.4153 18.77C71.4153 19.0656 71.3243 19.3386 71.1421 19.589C70.9641 19.8353 70.7115 20.0324 70.3845 20.1802C71.1545 20.4471 71.5395 20.9623 71.5395 21.7259C71.5395 22.3376 71.2891 22.8262 70.7881 23.1915C70.2872 23.5528 69.6165 23.7335 68.7761 23.7335C68.2627 23.7335 67.7949 23.6493 67.3726 23.481C66.9503 23.3085 66.6212 23.0663 66.3852 22.7543C66.1492 22.4382 66.0312 22.0646 66.0312 21.6335H67.534C67.534 21.9045 67.6562 22.1323 67.9004 22.3171C68.1447 22.4977 68.4531 22.588 68.8257 22.588C69.1942 22.588 69.4861 22.5039 69.7014 22.3356C69.9208 22.1631 70.0305 21.9394 70.0305 21.6643C70.0305 21.34 69.9353 21.106 69.7448 20.9623C69.5544 20.8186 69.2604 20.7467 68.863 20.7467H67.7824V19.6691H68.9003C69.5751 19.6609 69.9125 19.3858 69.9125 18.8439C69.9125 18.5729 69.8152 18.3615 69.6206 18.2096C69.426 18.0577 69.159 17.9817 68.8195 17.9817C68.4883 17.9817 68.2089 18.0638 67.9812 18.2281C67.7535 18.3882 67.6396 18.5914 67.6396 18.8377H66.1368C66.1368 18.2506 66.3852 17.7703 66.882 17.3967C67.3788 17.019 68.0102 16.8302 68.7761 16.8302C69.6082 16.8302 70.2561 16.9985 70.7198 17.3351C71.1835 17.6718 71.4153 18.1501 71.4153 18.77Z" fill="black"/>
<path d="M74.4459 19.0656H75.9238C76.4745 19.0656 76.9547 19.16 77.3646 19.3488C77.7744 19.5377 78.0849 19.8025 78.2961 20.1432C78.5114 20.484 78.619 20.8802 78.619 21.3318C78.619 22.0174 78.3748 22.5675 77.8862 22.9822C77.3977 23.3968 76.7477 23.6062 75.9363 23.6103H72.9368V16.9472H74.4459V19.0656ZM81.2459 23.6103H79.7368V16.9472H81.2459V23.6103ZM74.4459 20.2664V22.4156H75.9176C76.2861 22.4156 76.5759 22.3253 76.787 22.1446C77.0023 21.9599 77.11 21.6992 77.11 21.3626C77.11 21.0259 77.0044 20.7611 76.7933 20.5682C76.5863 20.3711 76.3047 20.2705 75.9487 20.2664H74.4459Z" fill="black"/>
<path d="M85.4439 20.9746H84.68V23.6103H83.171V16.9472H84.68V19.6075H85.3445L87.2013 16.9472H89.0644L86.6362 20.1371L89.2693 23.6103H87.3069L85.4439 20.9746Z" fill="black"/>
<path d="M94.1131 23.6103C94.0469 23.483 93.9889 23.2757 93.9393 22.9883C93.459 23.4851 92.8711 23.7335 92.1756 23.7335C91.5008 23.7335 90.9501 23.5425 90.5237 23.1607C90.0973 22.7789 89.8841 22.3068 89.8841 21.7444C89.8841 21.0341 90.149 20.4902 90.679 20.1125C91.213 19.7307 91.9748 19.5398 92.9643 19.5398H93.8896V19.1025C93.8896 18.7577 93.7923 18.4826 93.5977 18.2773C93.4031 18.068 93.1071 17.9633 92.7097 17.9633C92.366 17.9633 92.0845 18.0495 91.8651 18.2219C91.6457 18.3902 91.536 18.6058 91.536 18.8685H90.0269C90.0269 18.5031 90.149 18.1624 90.3933 17.8463C90.6376 17.526 90.9688 17.2756 91.3869 17.095C91.8092 16.9143 92.2791 16.824 92.7966 16.824C93.5832 16.824 94.2104 17.0211 94.6783 17.4152C95.1461 17.8052 95.3862 18.3553 95.3986 19.0656V22.0707C95.3986 22.6701 95.4835 23.1484 95.6532 23.5056V23.6103H94.1131ZM92.4551 22.5326C92.7531 22.5326 93.0326 22.4608 93.2934 22.3171C93.5584 22.1734 93.7571 21.9804 93.8896 21.7382V20.4819H93.0761C92.5171 20.4819 92.0969 20.5784 91.8154 20.7714C91.5339 20.9643 91.3931 21.2373 91.3931 21.5904C91.3931 21.8778 91.4883 22.1077 91.6788 22.2801C91.8734 22.4485 92.1321 22.5326 92.4551 22.5326Z" fill="black"/>
<path d="M102.689 16.9472V23.6103H101.18V18.1542H99.2799L99.1557 20.4758C99.0771 21.5925 98.8597 22.3951 98.5037 22.8836C98.1518 23.3681 97.6115 23.6103 96.8828 23.6103H96.4171L96.4109 22.3663L96.7214 22.3356C97.0526 22.2904 97.2927 22.0913 97.4417 21.7382C97.5949 21.381 97.6922 20.7324 97.7336 19.7922L97.8578 16.9472H102.689Z" fill="black"/>
<path d="M105.918 19.0656H107.396C107.947 19.0656 108.427 19.16 108.837 19.3488C109.247 19.5377 109.558 19.8025 109.769 20.1432C109.984 20.484 110.092 20.8802 110.092 21.3318C110.092 22.0174 109.847 22.5675 109.359 22.9822C108.87 23.3968 108.22 23.6062 107.409 23.6103H104.409V16.9472H105.918V19.0656ZM105.918 20.2664V22.4156H107.39C107.759 22.4156 108.049 22.3253 108.26 22.1446C108.475 21.9599 108.583 21.6992 108.583 21.3626C108.583 21.0259 108.477 20.7611 108.266 20.5682C108.059 20.3711 107.777 20.2705 107.421 20.2664H105.918Z" fill="black"/>
<path d="M116.991 23.6103H115.482V20.9192H112.868V23.6103H111.359V16.9472H112.868V19.7245H115.482V16.9472H116.991V23.6103Z" fill="black"/>
<path d="M120.226 19.0656H121.704C122.255 19.0656 122.735 19.16 123.145 19.3488C123.555 19.5377 123.866 19.8025 124.077 20.1432C124.292 20.484 124.4 20.8802 124.4 21.3318C124.4 22.0174 124.155 22.5675 123.667 22.9822C123.178 23.3968 122.528 23.6062 121.717 23.6103H118.717V16.9472H120.226V19.0656ZM127.027 23.6103H125.517V16.9472H127.027V23.6103ZM120.226 20.2664V22.4156H121.698C122.067 22.4156 122.357 22.3253 122.568 22.1446C122.783 21.9599 122.891 21.6992 122.891 21.3626C122.891 21.0259 122.785 20.7611 122.574 20.5682C122.367 20.3711 122.085 20.2705 121.729 20.2664H120.226Z" fill="black"/>
<path d="M133.032 16.9472H134.534V23.6103H133.032V19.1641L130.399 23.6103H128.896V16.9472H130.399V21.3934L133.032 16.9472ZM133.74 14.3915C133.74 14.9088 133.557 15.3276 133.193 15.6478C132.829 15.968 132.342 16.1281 131.734 16.1281C131.125 16.1281 130.639 15.968 130.274 15.6478C129.91 15.3276 129.728 14.9088 129.728 14.3915H130.858C130.858 14.6625 130.935 14.8739 131.088 15.0258C131.245 15.1736 131.461 15.2475 131.734 15.2475C132.007 15.2475 132.22 15.1736 132.373 15.0258C132.527 14.8739 132.603 14.6625 132.603 14.3915H133.74Z" fill="black"/>
<path d="M144.595 18.1357H142.415V23.6103H140.906V18.1357H138.751V16.9472H144.595V18.1357Z" fill="black"/>
<path d="M148.166 23.7335C147.209 23.7335 146.433 23.4358 145.837 22.8405C145.245 22.2411 144.949 21.4447 144.949 20.4512V20.2664C144.949 19.6013 145.077 19.0081 145.334 18.4867C145.595 17.9612 145.959 17.5527 146.427 17.2612C146.895 16.9697 147.416 16.824 147.992 16.824C148.907 16.824 149.613 17.1134 150.109 17.6923C150.61 18.2712 150.861 19.0902 150.861 20.1494V20.7529H146.47C146.516 21.303 146.7 21.7382 147.023 22.0584C147.35 22.3787 147.76 22.5388 148.253 22.5388C148.944 22.5388 149.507 22.2617 149.942 21.7074L150.755 22.4772C150.486 22.8754 150.126 23.1854 149.675 23.4071C149.228 23.6247 148.724 23.7335 148.166 23.7335ZM147.985 18.0248C147.571 18.0248 147.236 18.1685 146.979 18.4559C146.727 18.7433 146.565 19.1436 146.495 19.6568H149.37V19.5459C149.337 19.045 149.203 18.6673 148.967 18.4128C148.731 18.1542 148.404 18.0248 147.985 18.0248Z" fill="black"/>
<path d="M156.052 23.6103C155.986 23.483 155.928 23.2757 155.878 22.9883C155.398 23.4851 154.81 23.7335 154.115 23.7335C153.44 23.7335 152.889 23.5425 152.463 23.1607C152.037 22.7789 151.823 22.3068 151.823 21.7444C151.823 21.0341 152.088 20.4902 152.618 20.1125C153.152 19.7307 153.914 19.5398 154.904 19.5398H155.829V19.1025C155.829 18.7577 155.732 18.4826 155.537 18.2773C155.342 18.068 155.046 17.9633 154.649 17.9633C154.305 17.9633 154.024 18.0495 153.804 18.2219C153.585 18.3902 153.475 18.6058 153.475 18.8685H151.966C151.966 18.5031 152.088 18.1624 152.333 17.8463C152.577 17.526 152.908 17.2756 153.326 17.095C153.748 16.9143 154.218 16.824 154.736 16.824C155.522 16.824 156.15 17.0211 156.617 17.4152C157.085 17.8052 157.325 18.3553 157.338 19.0656V22.0707C157.338 22.6701 157.423 23.1484 157.592 23.5056V23.6103H156.052ZM154.394 22.5326C154.692 22.5326 154.972 22.4608 155.233 22.3171C155.498 22.1734 155.696 21.9804 155.829 21.7382V20.4819H155.015C154.456 20.4819 154.036 20.5784 153.755 20.7714C153.473 20.9643 153.332 21.2373 153.332 21.5904C153.332 21.8778 153.428 22.1077 153.618 22.2801C153.813 22.4485 154.071 22.5326 154.394 22.5326Z" fill="black"/>
<path d="M164.107 18.1357H161.927V23.6103H160.418V18.1357H158.263V16.9472H164.107V18.1357Z" fill="black"/>
<path d="M171 20.3465C171 21.3769 170.764 22.2001 170.292 22.8159C169.82 23.4276 169.187 23.7335 168.392 23.7335C167.655 23.7335 167.065 23.4933 166.622 23.0129V26.1721H165.113V16.9472H166.504L166.566 17.6246C167.009 17.0909 167.611 16.824 168.373 16.824C169.193 16.824 169.835 17.1278 170.298 17.7354C170.766 18.3389 171 19.1785 171 20.2541V20.3465ZM169.497 20.2171C169.497 19.5521 169.363 19.0245 169.094 18.6345C168.829 18.2445 168.448 18.0495 167.951 18.0495C167.334 18.0495 166.891 18.302 166.622 18.8069V21.7628C166.895 22.2801 167.342 22.5388 167.963 22.5388C168.444 22.5388 168.818 22.3479 169.087 21.9661C169.361 21.5802 169.497 20.9972 169.497 20.2171Z" fill="black"/>
<path d="M92.7345 34.3398H94.0014C94.1132 33.49 94.4444 32.8106 94.995 32.3015C95.5456 31.7924 96.2412 31.5379 97.0816 31.5379C97.9883 31.5379 98.7231 31.8273 99.2862 32.4062C99.8533 32.985 100.16 33.7528 100.205 34.7093L100.211 35.0603C100.211 35.7172 100.083 36.3043 99.8264 36.8216C99.5739 37.3389 99.2096 37.7391 98.7335 38.0224C98.2615 38.3057 97.715 38.4473 97.094 38.4473C96.2246 38.4473 95.5104 38.1805 94.9515 37.6468C94.3968 37.1131 94.0759 36.411 93.989 35.5407H92.7345V38.3242H91.2255V31.661H92.7345V34.3398ZM95.4732 35.0603C95.4732 35.7459 95.616 36.2838 95.9017 36.6738C96.1873 37.0597 96.5848 37.2526 97.094 37.2526C97.6032 37.2526 97.9986 37.0556 98.2801 36.6615C98.5617 36.2673 98.7024 35.6905 98.7024 34.931C98.7024 34.2454 98.5554 33.7097 98.2615 33.3237C97.9717 32.9337 97.5784 32.7387 97.0816 32.7387C96.5889 32.7387 96.1977 32.9337 95.9079 33.3237C95.6181 33.7097 95.4732 34.2885 95.4732 35.0603Z" fill="black"/>
<path d="M107.148 38.3242H105.639V35.633H103.025V38.3242H101.516V31.661H103.025V34.4384H105.639V31.661H107.148V38.3242Z" fill="black"/>
<path d="M108.477 34.931C108.477 34.2783 108.607 33.6912 108.868 33.1698C109.129 32.6443 109.496 32.242 109.967 31.9628C110.439 31.6795 110.982 31.5379 111.595 31.5379C112.501 31.5379 113.236 31.8273 113.799 32.4062C114.366 32.985 114.673 33.7528 114.718 34.7093L114.724 35.0603C114.724 35.7172 114.596 36.3043 114.339 36.8216C114.087 37.3389 113.723 37.7391 113.246 38.0224C112.774 38.3057 112.228 38.4473 111.607 38.4473C110.659 38.4473 109.899 38.1353 109.328 37.5113C108.761 36.8832 108.477 36.0477 108.477 35.0049V34.931ZM109.986 35.0603C109.986 35.7459 110.129 36.2838 110.415 36.6738C110.7 37.0597 111.098 37.2526 111.607 37.2526C112.116 37.2526 112.512 37.0556 112.793 36.6615C113.079 36.2673 113.222 35.6905 113.222 34.931C113.222 34.2577 113.075 33.724 112.781 33.3299C112.491 32.9358 112.095 32.7387 111.595 32.7387C111.102 32.7387 110.711 32.9337 110.421 33.3237C110.131 33.7097 109.986 34.2885 109.986 35.0603Z" fill="black"/>
<path d="M120.475 32.868H117.556V38.3242H116.053V31.661H120.475V32.868Z" fill="black"/>
<path d="M120.922 34.931C120.922 34.2783 121.052 33.6912 121.313 33.1698C121.574 32.6443 121.94 32.242 122.412 31.9628C122.884 31.6795 123.427 31.5379 124.039 31.5379C124.946 31.5379 125.681 31.8273 126.244 32.4062C126.811 32.985 127.118 33.7528 127.163 34.7093L127.169 35.0603C127.169 35.7172 127.041 36.3043 126.784 36.8216C126.532 37.3389 126.167 37.7391 125.691 38.0224C125.219 38.3057 124.673 38.4473 124.052 38.4473C123.104 38.4473 122.344 38.1353 121.773 37.5113C121.206 36.8832 120.922 36.0477 120.922 35.0049V34.931ZM122.431 35.0603C122.431 35.7459 122.574 36.2838 122.86 36.6738C123.145 37.0597 123.543 37.2526 124.052 37.2526C124.561 37.2526 124.957 37.0556 125.238 36.6615C125.524 36.2673 125.667 35.6905 125.667 34.931C125.667 34.2577 125.52 33.724 125.226 33.3299C124.936 32.9358 124.54 32.7387 124.039 32.7387C123.547 32.7387 123.156 32.9337 122.866 33.3237C122.576 33.7097 122.431 34.2885 122.431 35.0603Z" fill="black"/>
<path d="M135.627 38.3242C135.561 38.1969 135.503 37.9896 135.454 37.7022C134.973 38.1989 134.385 38.4473 133.69 38.4473C133.015 38.4473 132.464 38.2564 132.038 37.8746C131.612 37.4928 131.398 37.0207 131.398 36.4582C131.398 35.748 131.663 35.204 132.193 34.8263C132.727 34.4445 133.489 34.2536 134.479 34.2536H135.404V33.8164C135.404 33.4715 135.307 33.1965 135.112 32.9912C134.917 32.7818 134.621 32.6771 134.224 32.6771C133.88 32.6771 133.599 32.7634 133.379 32.9358C133.16 33.1041 133.05 33.3196 133.05 33.5824H131.541C131.541 33.217 131.663 32.8763 131.908 32.5601C132.152 32.2399 132.483 31.9895 132.901 31.8088C133.324 31.6282 133.793 31.5379 134.311 31.5379C135.098 31.5379 135.725 31.7349 136.193 32.1291C136.66 32.5191 136.901 33.0692 136.913 33.7794V36.7846C136.913 37.384 136.998 37.8623 137.168 38.2195V38.3242H135.627ZM133.969 37.2465C134.267 37.2465 134.547 37.1746 134.808 37.031C135.073 36.8873 135.271 36.6943 135.404 36.4521V35.1958H134.59C134.031 35.1958 133.611 35.2923 133.33 35.4853C133.048 35.6782 132.907 35.9512 132.907 36.3043C132.907 36.5917 133.003 36.8216 133.193 36.994C133.388 37.1623 133.646 37.2465 133.969 37.2465Z" fill="black"/>
<path d="M140.881 35.6885H140.117V38.3242H138.608V31.661H140.117V34.3214H140.782L142.639 31.661H144.502L142.074 34.851L144.707 38.3242H142.744L140.881 35.6885Z" fill="black"/>
<path d="M150.824 32.8496H148.644V38.3242H147.135V32.8496H144.98V31.661H150.824V32.8496Z" fill="black"/>
<path d="M154.394 38.4473C153.438 38.4473 152.662 38.1497 152.066 37.5544C151.474 36.955 151.177 36.1585 151.177 35.165V34.9803C151.177 34.3152 151.306 33.722 151.563 33.2006C151.823 32.6751 152.188 32.2666 152.655 31.9751C153.123 31.6836 153.645 31.5379 154.22 31.5379C155.135 31.5379 155.841 31.8273 156.338 32.4062C156.839 32.985 157.089 33.8041 157.089 34.8633V35.4668H152.699C152.745 36.0169 152.929 36.4521 153.252 36.7723C153.579 37.0925 153.989 37.2526 154.481 37.2526C155.173 37.2526 155.736 36.9755 156.17 36.4213L156.984 37.1911C156.715 37.5893 156.355 37.8993 155.903 38.1209C155.456 38.3385 154.953 38.4473 154.394 38.4473ZM154.214 32.7387C153.8 32.7387 153.465 32.8824 153.208 33.1698C152.956 33.4572 152.794 33.8574 152.724 34.3706H155.599V34.2598C155.566 33.7589 155.431 33.3812 155.195 33.1267C154.959 32.868 154.632 32.7387 154.214 32.7387ZM151.91 29.9121C151.91 29.7069 151.979 29.5344 152.115 29.3948C152.256 29.2553 152.448 29.1855 152.693 29.1855C152.937 29.1855 153.13 29.2553 153.27 29.3948C153.411 29.5344 153.481 29.7069 153.481 29.9121C153.481 30.1174 153.411 30.2898 153.27 30.4294C153.13 30.569 152.937 30.6388 152.693 30.6388C152.448 30.6388 152.256 30.569 152.115 30.4294C151.979 30.2898 151.91 30.1174 151.91 29.9121ZM154.748 29.9183C154.748 29.713 154.817 29.5406 154.953 29.401C155.094 29.2614 155.287 29.1916 155.531 29.1916C155.775 29.1916 155.968 29.2614 156.108 29.401C156.249 29.5406 156.319 29.713 156.319 29.9183C156.319 30.1236 156.249 30.296 156.108 30.4356C155.968 30.5752 155.775 30.6449 155.531 30.6449C155.287 30.6449 155.094 30.5752 154.953 30.4356C154.817 30.296 154.748 30.1236 154.748 29.9183Z" fill="black"/>
<path d="M164.15 35.0603C164.15 36.0908 163.914 36.9139 163.442 37.5298C162.97 38.1415 162.337 38.4473 161.542 38.4473C160.805 38.4473 160.215 38.2072 159.772 37.7268V40.886H158.263V31.661H159.654L159.716 32.3384C160.159 31.8047 160.762 31.5379 161.523 31.5379C162.343 31.5379 162.985 31.8417 163.449 32.4493C163.916 33.0528 164.15 33.8923 164.15 34.968V35.0603ZM162.647 34.931C162.647 34.2659 162.513 33.7384 162.244 33.3484C161.979 32.9584 161.598 32.7634 161.101 32.7634C160.484 32.7634 160.041 33.0158 159.772 33.5208V36.4767C160.045 36.994 160.493 37.2526 161.114 37.2526C161.594 37.2526 161.969 37.0617 162.238 36.6799C162.511 36.294 162.647 35.7111 162.647 34.931Z" fill="black"/>
<path d="M169.448 38.3242C169.381 38.1969 169.323 37.9896 169.274 37.7022C168.793 38.1989 168.206 38.4473 167.51 38.4473C166.835 38.4473 166.285 38.2564 165.858 37.8746C165.432 37.4928 165.218 37.0207 165.218 36.4582C165.218 35.748 165.483 35.204 166.013 34.8263C166.547 34.4445 167.309 34.2536 168.299 34.2536H169.224V33.8164C169.224 33.4715 169.127 33.1965 168.932 32.9912C168.737 32.7818 168.441 32.6771 168.044 32.6771C167.7 32.6771 167.419 32.7634 167.199 32.9358C166.98 33.1041 166.87 33.3196 166.87 33.5824H165.361C165.361 33.217 165.483 32.8763 165.728 32.5601C165.972 32.2399 166.303 31.9895 166.721 31.8088C167.144 31.6282 167.613 31.5379 168.131 31.5379C168.918 31.5379 169.545 31.7349 170.013 32.1291C170.48 32.5191 170.721 33.0692 170.733 33.7794V36.7846C170.733 37.384 170.818 37.8623 170.988 38.2195V38.3242H169.448ZM167.789 37.2465C168.088 37.2465 168.367 37.1746 168.628 37.031C168.893 36.8873 169.091 36.6943 169.224 36.4521V35.1958H168.41C167.852 35.1958 167.431 35.2923 167.15 35.4853C166.868 35.6782 166.728 35.9512 166.728 36.3043C166.728 36.5917 166.823 36.8216 167.013 36.994C167.208 37.1623 167.467 37.2465 167.789 37.2465Z" fill="black"/>
<path fill-rule="evenodd" clip-rule="evenodd" d="M106.913 52.9465L113.923 60.8042L106.913 68.6619L99.903 60.8042L106.913 52.9465ZM106.913 54.7957L101.553 60.8042L106.913 66.8127L112.273 60.8042L106.913 54.7957Z" fill="black"/>
<path fill-rule="evenodd" clip-rule="evenodd" d="M117.21 52.9465L125.044 60.7406L118.441 67.3389V68.6619H117.21V52.9465ZM118.441 65.526L123.337 60.747L118.441 56.0387V65.526Z" fill="black"/>
<path fill-rule="evenodd" clip-rule="evenodd" d="M157.819 52.9465H159.056V65.0806L169.752 54.4948V66.6719H168.515V58.0761L157.819 68.6619V52.9465Z" fill="black"/>
<path fill-rule="evenodd" clip-rule="evenodd" d="M163.146 54.5817L161.852 53.7904L161.208 54.8496L163.325 56.1444L165.131 54.3655L164.265 53.4802L163.146 54.5817Z" fill="black"/>
<path fill-rule="evenodd" clip-rule="evenodd" d="M135.107 52.9465L142.351 60.8886L135.738 67.2113V68.6619H134.506V67.2113L128.331 60.8875L135.107 52.9465ZM135.738 65.5064L140.629 60.8298L135.738 55.4676V65.5064ZM134.506 55.4676V65.5064L129.999 60.8308L134.506 55.4676Z" fill="black"/>
<path d="M145.238 60.8042L152.248 68.6619V66.8127L147.256 61.4246H152.66V60.1839H147.256L152.248 54.7957V52.9465L145.238 60.8042Z" fill="black"/>
<path fill-rule="evenodd" clip-rule="evenodd" d="M106.913 51.8808L114.874 60.8042L106.913 69.7277L98.9523 60.8042L106.913 51.8808ZM99.903 60.8042L106.913 68.6619L113.923 60.8042L106.913 52.9465L99.903 60.8042ZM116.504 51.2432L126.05 60.7394L119.147 67.6375V69.3763H116.504V51.2432ZM118.441 67.3389L125.044 60.7406L117.21 52.9465V68.6619H118.441V67.3389ZM157.113 52.2322H159.762V63.3834L170.458 52.7976V67.3862H167.81V59.7733L157.113 70.3591V52.2322ZM168.515 58.0761V66.6719H169.752V54.4948L159.056 65.0806V52.9465H157.819V68.6619L168.515 58.0761ZM163.325 56.1444L161.208 54.8496L161.852 53.7904L163.146 54.5817L164.265 53.4802L165.131 54.3655L163.325 56.1444ZM163.045 53.6851L164.274 52.4748L166.134 54.3748L163.426 57.041L160.234 55.0885L161.618 52.8127L163.045 53.6851ZM135.089 51.8744L143.343 60.9229L136.444 67.5192V69.3763H133.8V67.5048L127.37 60.9202L135.089 51.8744ZM134.506 67.2113V68.6619H135.738V67.2113L142.351 60.8886L135.107 52.9465L128.331 60.8875L134.506 67.2113ZM129.999 60.8308L134.506 65.5064V55.4676L129.999 60.8308ZM133.8 57.4096L130.953 60.7978L133.8 63.7516V57.4096ZM144.287 60.8042L152.953 51.09V55.0783L148.885 59.4696H153.365V62.1389H148.885L152.953 66.5301V70.5185L144.287 60.8042ZM147.256 61.4246H152.66V60.1839H147.256L152.248 54.7957V52.9465L145.238 60.8042L152.248 68.6619V66.8127L147.256 61.4246ZM102.504 60.8042L106.913 55.8615L111.323 60.8042L106.913 65.747L102.504 60.8042ZM106.913 66.8127L101.553 60.8042L106.913 54.7957L112.273 60.8042L106.913 66.8127ZM123.337 60.747L118.441 56.0387V65.526L123.337 60.747ZM122.317 60.7509L119.147 57.7024V63.8451L122.317 60.7509ZM139.638 60.7954L136.444 57.294V63.8492L139.638 60.7954ZM140.629 60.8298L135.738 55.4676V65.5064L140.629 60.8298Z" fill="black"/>
<path fill-rule="evenodd" clip-rule="evenodd" d="M13.7486 41.112C16.9618 39.3795 19.9264 39.2522 23.1019 41.2399C24.4302 42.0713 25.522 43.2766 26.2702 44.2456C26.8024 44.9347 27.269 45.6577 27.6917 46.412C27.2755 46.8644 26.8459 47.3033 26.3763 47.7061C26.5448 49.603 28.4897 50.3077 28.9329 50.6836C29.5258 51.1864 28.4367 52.6875 27.9359 53.3005L27.2955 52.8242C27.8873 51.7167 27.6917 51.2693 27.6917 51.2693C27.6917 51.2693 25.6024 49.8334 24.6931 48.7984C23.671 49.5149 22.1567 49.2835 21.6373 50.3992C21.0839 51.5878 21.6551 53.5409 21.8723 54.4503C21.9756 54.8826 22.2694 55.8067 22.2694 55.8067C22.2694 55.8067 22.6789 57.1118 22.8354 57.7966C23.0266 58.6333 23.4963 59.349 23.3251 61.3244C26.6238 59.9579 28.3202 60.1606 27.5566 57.0643L28.4545 54.8094L51.0786 51.0013C51.7379 49.1609 53.597 47.8997 55.4629 47.4482C57.3078 47.0017 59.4527 47.2919 60.6107 48.8788C63.8016 48.3388 64.3717 48.2662 66.7872 47.9587C67.0449 47.9729 67.4058 48.0137 67.6805 48.1938C69.0121 49.0667 69.1904 51.8483 68.4219 53.1968C68.3055 53.4009 68.1203 53.5157 68.0155 53.5727C65.6839 53.986 63.5488 54.1301 61.2326 54.4975C61.0431 54.823 60.7255 55.3736 60.3612 56.0266C59.7682 57.0895 59.0598 58.4088 58.574 59.4724C55.5025 66.1978 55.6122 73.7991 51.5113 80.1796C51.2939 80.5178 50.9057 80.6554 50.6572 80.7215C48.7485 81.2297 44.7904 80.6329 44.7904 80.6329L40.8006 83.7131L40.6981 82.3761L43.7137 79.4545C46.2729 76.237 48.6014 73.0329 49.8179 70.0803C51.0972 66.9752 52.3637 63.2952 53.9241 60.2185C54.164 59.7455 54.551 59.248 54.903 58.7955C55.4905 58.0403 57.3403 56.6959 57.3403 56.6959C57.3403 56.6959 59.7966 52.6642 59.6633 52.1422L55.7155 53.0585L52.8651 53.4215C50.2698 61.8919 43.6633 69.2467 37.9563 76.1036C33.2094 73.9917 26.6396 73.722 23.0821 73.4915C19.4443 72.785 16.537 71.7991 13.1151 73.3092C10.6332 74.4044 8.73222 78.8151 9.11656 80.6329C4.24882 67.5357 5.0856 60.0245 10.3134 44.2456C11.0706 43.5426 12.1492 41.9744 13.7486 41.112ZM28.1237 60.6636C29.0172 60.091 28.8634 58.613 28.8055 57.7026C28.8014 57.639 41.7137 56.5316 47.847 56.0056C49.3508 55.8767 50.4471 55.7827 50.8455 55.7475C48.2266 60.8411 44.9007 65.9357 40.4809 69.8176C40.4809 69.8176 35.0917 68.3124 32.0653 68.1334C31.2535 68.0853 30.4523 68.0497 29.6588 68.0144C27.4887 67.918 25.3765 67.8241 23.2651 67.4859L23.4179 62.3432C23.4179 62.3432 26.827 61.4945 28.1237 60.6636Z" fill="black"/>
<path fill-rule="evenodd" clip-rule="evenodd" d="M99.8278 114.712L95.999 118.47C95.8032 119.861 97.1902 121.979 97.5706 121.825L95.0324 123.104L93.7399 120.356C93.6614 120.173 93.5429 119.695 93.5035 119.534C92.9676 117.71 89.7805 116.968 85.4004 115.949C77.0339 114.003 68.9025 110.059 61.9873 105.081C61.9873 105.081 59.4781 107.55 57.3086 110.527L57.8041 111.607C58.4433 112.827 59.0027 114.036 59.4955 115.31L59.6134 115.345C59.8915 115.428 60.2965 115.548 60.804 115.699C61.8192 116.001 63.2446 116.423 64.8857 116.906C68.1684 117.872 72.3115 119.08 75.7587 120.048C78.0665 120.696 79.2597 126.029 80.1268 128.03L78.4718 128.187C78.4718 128.187 77.1638 121.813 75.4044 121.314C72.0551 120.434 68.0468 119.573 64.8689 118.931C63.2803 118.61 61.9019 118.344 60.9207 118.159L60.5776 118.094L60.4247 118.066C60.7946 119.338 61.1174 120.71 61.403 122.238C61.6909 123.777 62.1881 127.427 62.2607 128.092C47.3203 126.598 38.8325 120.901 31.5266 115.33C31.5266 115.33 31.817 107.33 30.8523 102.254C29.7116 96.2518 30.8523 85.8785 30.8523 85.8785C26.1204 85.4217 24.3936 85.0615 20.6218 84.2892L19.8683 82.2019C19.8683 82.2019 27.6503 83.8234 33.3521 84.2892C33.3521 84.2892 33.3158 96.6476 36.2205 101.877C37.6049 104.369 41.2847 107.376 41.2847 107.376C47.233 101.606 51.6929 97.2278 58.4376 92.782C59.8596 92.0501 61.0944 91.7234 62.327 91.8808C63.5492 92.0369 64.6652 92.6568 65.8744 93.5945C68.1928 95.3921 70.9182 96.8098 73.4037 98.3613C81.4077 103.357 88.4623 110.924 97.8235 113.165C101.37 113.695 105.281 113.219 108.682 112.089C110.01 111.523 111.201 112.414 111.865 113.56L111.009 114.308C109.924 112.239 107.756 112.987 106.293 113.56L106.864 117.075L102.952 119.353L102.353 114.658C101.564 114.755 100.749 114.771 99.8278 114.712ZM56.2629 109.003C55.4574 107.568 55.4128 107.46 54.359 105.802C53.578 104.574 52.4836 103.082 51.5922 101.906C51.1449 101.317 50.79 100.893 50.5028 100.527C53.1735 98.1844 55.8708 95.5814 59.0423 93.9492C60.3363 93.2832 61.2921 93.0734 62.1581 93.184C63.0345 93.2959 63.9251 93.7487 65.0637 94.6315C65.2845 94.8028 66.3329 95.4742 67.7147 96.3472C69.1206 97.2354 70.9238 98.3645 72.7026 99.4748C74.2586 100.446 75.6022 101.446 76.6829 102.25C77.418 102.797 78.0315 103.254 78.5075 103.549L73.6299 109.478C69.5551 107.849 65.1806 105.013 61.7251 102.324L56.2629 109.003ZM82.7619 106.498L78.7638 112.383C78.0121 112.245 76.4967 111.344 75.8195 111.022C75.8195 111.022 78.433 107.464 80.1661 104.628C80.6499 105.058 81.1185 105.365 81.5979 105.68C81.9751 105.927 82.3589 106.179 82.7619 106.498ZM80.9278 113.246L84.2784 107.649C85.0472 108.234 85.8827 108.844 86.7722 109.454L83.5972 113.893C82.6758 113.651 81.8434 113.499 80.9278 113.246ZM85.089 114.168L87.8683 110.186C88.6346 110.684 89.4307 111.172 90.2439 111.631L87.6954 114.902C86.9814 114.781 86.1218 114.55 85.089 114.168ZM89.0458 115.324L91.2707 112.395C91.7844 112.66 92.3631 112.859 92.9266 113.053C93.2498 113.165 93.5679 113.274 93.8659 113.394L91.1131 116.063C90.4409 115.799 89.7501 115.554 89.0458 115.324ZM92.4216 116.614L95.2306 113.888C96.041 114.149 97.3293 114.416 98.1123 114.534L94.7376 117.905C93.1992 116.682 92.3753 116.608 92.4216 116.614Z" fill="black"/>
<path d="M64.1701 1.0484C35.9673 4.27801 12.4773 25.1502 8.15847 53.4769C2.94968 87.6413 27.6005 119.712 63.2176 125.109C92.5097 129.547 120.097 114.562 131.868 90.0955L132.747 90.3877C123.79 115.923 99.9439 134.716 71.181 135.937C33.5085 137.537 1.66793 108.389 0.0630305 70.8325C-1.52366 33.702 27.0379 2.25425 64.0915 0L64.1701 1.0484Z" fill="black"/>
<path d="M170.458 77.5718H98.9765V79.399H170.458V77.5718Z" fill="black"/>
</g>
</svg>
