<svg width="512" height="214" viewBox="0 0 512 214" fill="none" xmlns="http://www.w3.org/2000/svg">
<path d="M490.667 85.667H488.531C478.647 36.981 435.602 0.333984 384 0.333984C346.047 0.333984 312.726 20.162 293.82 50.02C282.786 45.08 270.666 42.994 256.005 42.994C241.357 42.994 229.232 45.087 218.189 50.033C199.284 20.167 165.959 0.333984 128.001 0.333984C76.4 0.333984 33.355 36.982 23.47 85.667H21.334C9.551 85.667 0 95.218 0 107C0 118.782 9.551 128.333 21.333 128.333H23.469C33.353 177.019 76.398 213.666 128 213.666C186.907 213.666 234.667 165.907 234.667 106.999C234.667 101.262 234.208 95.634 233.336 90.142C239.391 86.811 245.993 85.659 256.004 85.659C266.033 85.659 272.626 86.803 278.666 90.127C277.792 95.623 277.333 101.257 277.333 106.999C277.333 165.906 325.092 213.666 384 213.666C435.601 213.666 478.646 177.018 488.531 128.333H490.667C502.449 128.333 512 118.782 512 107C512 95.218 502.449 85.667 490.667 85.667ZM128 171C92.657 171 64 142.343 64 107C64 71.657 92.657 43 128 43C163.343 43 192 71.657 192 107C192 142.343 163.343 171 128 171ZM384 171C348.657 171 320 142.343 320 107C320 71.657 348.657 43 384 43C419.343 43 448 71.657 448 107C448 142.343 419.343 171 384 171Z" fill="white"/>
</svg>
