<?xml version="1.0" encoding="iso-8859-1"?>
<!-- Generator: Adobe Illustrator 19.0.0, SVG Export Plug-In . SVG Version: 6.00 Build 0)  -->
<svg version="1.1" id="Capa_1" xmlns="http://www.w3.org/2000/svg" xmlns:xlink="http://www.w3.org/1999/xlink" x="0px" y="0px"
	 viewBox="0 0 512 512" style="enable-background:new 0 0 512 512;" xml:space="preserve">
<g transform="translate(1 1)">
	<g>
		<path d="M489.667,233.667h-2.136c-9.884-48.686-52.929-85.333-104.531-85.333c-37.953,0-71.274,19.828-90.18,49.686
			c-11.034-4.94-23.154-7.026-37.815-7.026c-14.648,0-26.773,2.093-37.816,7.039c-18.905-29.866-52.23-49.699-90.188-49.699
			c-51.601,0-94.646,36.648-104.531,85.333h-2.136C8.551,233.667-1,243.218-1,255c0,11.782,9.551,21.333,21.333,21.333h2.136
			c9.884,48.686,52.929,85.333,104.531,85.333c58.907,0,106.667-47.759,106.667-106.667c0-5.737-0.459-11.365-1.331-16.857
			c6.055-3.331,12.657-4.483,22.668-4.483c10.029,0,16.622,1.144,22.662,4.468c-0.874,5.496-1.333,11.13-1.333,16.872
			c0,58.907,47.759,106.667,106.667,106.667c51.601,0,94.646-36.648,104.531-85.333h2.136c11.782,0,21.333-9.551,21.333-21.333
			C511,243.218,501.449,233.667,489.667,233.667z M127,319c-35.343,0-64-28.657-64-64s28.657-64,64-64s64,28.657,64,64
			S162.343,319,127,319z M383,319c-35.343,0-64-28.657-64-64s28.657-64,64-64s64,28.657,64,64S418.343,319,383,319z"/>
	</g>
</g>
<g>
</g>
<g>
</g>
<g>
</g>
<g>
</g>
<g>
</g>
<g>
</g>
<g>
</g>
<g>
</g>
<g>
</g>
<g>
</g>
<g>
</g>
<g>
</g>
<g>
</g>
<g>
</g>
<g>
</g>
</svg>
