<svg width="23" height="22" viewBox="0 0 23 22" fill="none" xmlns="http://www.w3.org/2000/svg">
<path fill-rule="evenodd" clip-rule="evenodd" d="M23 11C23 17.0751 17.8513 22 11.5 22C5.14873 22 0 17.0751 0 11C0 4.92487 5.14873 0 11.5 0C17.8513 0 23 4.92487 23 11ZM11.9682 15.8245H11.0656C11.0656 15.8245 9.07405 15.9392 7.32029 14.1927C5.40765 12.2877 3.71847 8.50756 3.71847 8.50756C3.71847 8.50756 3.62109 8.25971 3.72687 8.1399C3.84577 8.00519 4.16967 7.99656 4.16967 7.99656L6.32727 7.98303C6.32727 7.98303 6.53063 8.01558 6.67618 8.11774C6.79611 8.20206 6.86335 8.35971 6.86335 8.35971C6.86335 8.35971 7.21205 9.20327 7.67391 9.96644C8.57529 11.4563 8.99512 11.7822 9.30119 11.6226C9.74706 11.3898 9.6134 9.51642 9.6134 9.51642C9.6134 9.51642 9.6216 8.8364 9.38893 8.53364C9.20873 8.29893 8.86884 8.23049 8.71879 8.21128C8.59743 8.19579 8.79669 7.92617 9.05498 7.80518C9.44325 7.62322 10.129 7.61282 10.9391 7.62086C11.5703 7.62694 11.7519 7.66459 11.9988 7.72165C12.5714 7.8539 12.5535 8.27769 12.515 9.19204C12.5035 9.46526 12.4901 9.78228 12.4901 10.1484C12.4901 10.2308 12.4876 10.3186 12.4851 10.4089C12.4717 10.8772 12.4564 11.4133 12.7786 11.6126C12.9438 11.7145 13.3481 11.6279 14.3591 9.98565C14.8384 9.20739 15.1978 8.29226 15.1978 8.29226C15.1978 8.29226 15.2763 8.12912 15.3982 8.05911C15.5231 7.98774 15.6914 8.0097 15.6914 8.0097L17.962 7.99617C17.962 7.99617 18.6442 7.91832 18.7547 8.21284C18.8705 8.52207 18.4997 9.24406 17.5721 10.4267C16.6911 11.5497 16.2631 11.9625 16.3033 12.3282C16.3326 12.5947 16.6109 12.8362 17.144 13.3095C18.2617 14.3018 18.5595 14.8229 18.6303 14.9467C18.6361 14.9567 18.6403 14.9641 18.6434 14.969C19.1436 15.7623 18.0886 15.8245 18.0886 15.8245L16.0721 15.8514C16.0721 15.8514 15.6387 15.9335 15.0684 15.5588C14.7702 15.363 14.4786 15.0432 14.2008 14.7386C13.7761 14.2729 13.3835 13.8424 13.0486 13.944C12.4865 14.1146 12.5041 15.2731 12.5041 15.2731C12.5041 15.2731 12.5082 15.5206 12.3801 15.6523C12.2409 15.7959 11.9682 15.8245 11.9682 15.8245Z" fill="white"/>
</svg>
