<svg width="29" height="37" viewBox="0 0 29 37" fill="none" xmlns="http://www.w3.org/2000/svg">
<path fill-rule="evenodd" clip-rule="evenodd" d="M22.0357 15.1413L26.6103 19.7695C28.5533 21.7352 29.3842 24.5663 28.8329 27.3426L27.068 36.2306C26.9792 36.6781 26.5907 37 26.1395 37H2.84112C1.27453 37 0 35.7106 0 34.1256V2.87435C0 1.28943 1.27453 0 2.84112 0H19.1946C20.7612 0 22.0357 1.28943 22.0357 2.87435V15.1413ZM1.89408 32.8482V34.1256C1.89408 34.654 2.31886 35.0838 2.84112 35.0838H16.1279C16.1747 34.2628 16.2809 33.52 16.431 32.8482H1.89408ZM25.3639 35.0838L26.9759 26.9652C27.4021 24.8191 26.7647 22.6356 25.271 21.1244L22.0357 17.8513V21.4822L24.6856 24.1631C25.0555 24.5373 25.0555 25.1439 24.6856 25.518C24.3158 25.8923 23.7161 25.8922 23.3463 25.518C21.2486 23.3958 20.7558 22.9006 20.2684 22.4002C19.9417 22.0649 19.6175 21.7272 18.8141 20.8958C18.3952 20.4755 17.7166 20.4766 17.299 20.899C16.8765 21.3258 16.8831 22.0135 17.299 22.4343C17.307 22.4422 17.3147 22.4505 21.7712 27.1379C22.267 27.6594 22.0456 28.4731 21.4259 28.6975C21.36 28.7255 20.5333 29.0914 19.7214 30.1121C18.742 31.3431 18.163 33.0487 18.0264 35.0838H25.3639ZM16.6808 10.3959L1.89408 10.3959V15.219L13.2056 15.219C13.7237 15.219 14.1437 15.6364 14.1437 16.1513C14.1437 16.6662 13.7237 17.0835 13.2056 17.0835L1.89408 17.0835V30.9319H17.0433C17.7749 29.2276 18.7937 28.1913 19.5801 27.5975L15.9525 23.7821C14.7986 22.6067 14.8042 20.7111 15.9602 19.5434C17.1139 18.3763 18.98 18.3699 20.1416 19.529V2.87435C20.1416 2.34605 19.7168 1.91624 19.1946 1.91624H2.84112C2.31886 1.91624 1.89408 2.34605 1.89408 2.87435V8.53139H16.6808C17.1989 8.53139 17.6189 8.94876 17.6189 9.46365C17.6189 9.97855 17.1989 10.3959 16.6808 10.3959Z" fill="black"/>
</svg>
