<svg width="19" height="15" viewBox="0 0 19 15" fill="none" xmlns="http://www.w3.org/2000/svg">
<path d="M16.6805 0.270264H2.3234C1.0418 0.270264 0 1.31206 0 2.59367V12.4062C0 13.6878 1.0418 14.7296 2.3234 14.7296H16.6766C17.9582 14.7296 19 13.6878 19 12.4062V2.5976C19.0039 1.31599 17.9621 0.270264 16.6805 0.270264ZM17.9425 12.4062C17.9425 13.102 17.3764 13.6682 16.6805 13.6682H2.3234C1.62756 13.6682 1.06145 13.102 1.06145 12.4062V2.5976C1.06145 1.90176 1.62756 1.33565 2.3234 1.33565H16.6766C17.3724 1.33565 17.9385 1.90176 17.9385 2.5976V12.4062H17.9425Z" fill="black"/>
<path d="M11.9826 7.37806L16.6294 3.21087C16.8456 3.01431 16.8653 2.68015 16.6687 2.45999C16.4721 2.24377 16.138 2.22412 15.9178 2.42068L9.50978 8.17218L8.25962 7.05569C8.25569 7.05176 8.25176 7.04783 8.25176 7.0439C8.22424 7.01638 8.19672 6.99279 8.16527 6.9692L3.07816 2.41675C2.85801 2.22019 2.52384 2.23984 2.32728 2.45999C2.13071 2.68015 2.15037 3.01431 2.37052 3.21087L7.07237 7.41344L2.39018 11.7968C2.17789 11.9973 2.16609 12.3315 2.36659 12.5477C2.47274 12.6578 2.61426 12.7168 2.75579 12.7168C2.88552 12.7168 3.01526 12.6696 3.11747 12.5752L7.87042 8.12894L9.15989 9.28081C9.2621 9.37123 9.38791 9.41447 9.51371 9.41447C9.63951 9.41447 9.76924 9.3673 9.86753 9.27688L11.1924 8.08962L15.9178 12.5792C16.02 12.6775 16.1537 12.7246 16.2834 12.7246C16.4249 12.7246 16.5625 12.6696 16.6687 12.5595C16.8692 12.3472 16.8613 12.0091 16.649 11.8086L11.9826 7.37806Z" fill="black"/>
</svg>
