<svg width="22" height="22" viewBox="0 0 22 22" fill="none" xmlns="http://www.w3.org/2000/svg">
<path d="M14.2785 5.85307H7.72149C6.6749 5.85307 5.82341 6.70456 5.82341 7.75115V14.3082C5.82341 15.3548 6.6749 16.2065 7.72149 16.2065H14.2785C15.3251 16.2065 16.1768 15.355 16.1768 14.3082V7.75115C16.1768 6.70456 15.3253 5.85307 14.2785 5.85307ZM11 14.4381C9.12079 14.4381 7.59184 12.9091 7.59184 11.0297C7.59184 9.15045 9.12079 7.62149 11 7.62149C12.8795 7.62149 14.4084 9.15045 14.4084 11.0297C14.4084 12.9089 12.8792 14.4381 11 14.4381ZM14.518 8.32616C14.0731 8.32616 13.7113 7.96439 13.7113 7.51977C13.7113 7.07515 14.0731 6.71338 14.518 6.71338C14.9626 6.71338 15.3244 7.07515 15.3244 7.51977C15.3244 7.96439 14.9626 8.32616 14.518 8.32616Z" fill="white"/>
<path d="M11 9.06172C9.91517 9.06172 9.03182 9.94458 9.03182 11.0294C9.03182 12.1147 9.91517 12.9978 11 12.9978C12.0853 12.9978 12.9679 12.1147 12.9679 11.0294C12.9679 9.94483 12.0851 9.06172 11 9.06172Z" fill="white"/>
<path d="M11 0C4.92511 0 0 4.92511 0 11C0 17.0749 4.92511 22 11 22C17.0749 22 22 17.0749 22 11C22 4.92511 17.0749 0 11 0ZM17.6168 14.3082C17.6168 16.1491 16.1195 17.6465 14.2785 17.6465H7.7215C5.88077 17.6465 4.38319 16.1491 4.38319 14.3082V7.75115C4.38319 5.91043 5.88077 4.41284 7.7215 4.41284H14.2785C16.1195 4.41284 17.6168 5.91043 17.6168 7.75115V14.3082Z" fill="white"/>
</svg>
