<svg width="159" height="127" viewBox="0 0 159 127" fill="none" xmlns="http://www.w3.org/2000/svg">
<path fill-rule="evenodd" clip-rule="evenodd" d="M146.176 38.3914C143.178 36.7735 140.413 36.6547 137.451 38.5107C136.212 39.2871 135.194 40.4127 134.496 41.3176C133.999 41.9611 133.564 42.6363 133.17 43.3406C133.558 43.763 133.959 44.1729 134.397 44.5491C134.24 46.3204 132.425 46.9785 132.012 47.3295C131.459 47.7991 132.475 49.2009 132.942 49.7733L133.539 49.3285C132.987 48.2943 133.17 47.8764 133.17 47.8764C133.17 47.8764 135.119 46.5356 135.967 45.569C136.92 46.2382 138.333 46.0221 138.817 47.0639C139.333 48.1739 138.801 49.9978 138.598 50.8469C138.502 51.2507 138.228 52.1136 138.228 52.1136C138.228 52.1136 137.846 53.3323 137.7 53.9719C137.521 54.7531 137.083 55.4215 137.243 57.2662C134.166 55.9901 132.583 56.1794 133.296 53.288L132.458 51.1823L111.355 47.6262C110.74 45.9076 109.006 44.7299 107.265 44.3082C105.544 43.8913 103.544 44.1623 102.463 45.6442C99.487 45.1399 98.9552 45.0721 96.7022 44.785C96.4618 44.7982 96.1251 44.8363 95.8689 45.0045C94.6268 45.8197 94.4605 48.4172 95.1773 49.6764C95.2859 49.867 95.4586 49.9742 95.5564 50.0274C97.7313 50.4134 99.7229 50.548 101.883 50.8911C102.06 51.195 102.356 51.7091 102.696 52.3189C103.249 53.3115 103.91 54.5435 104.363 55.5368C107.228 61.817 107.126 68.9153 110.951 74.8736C111.154 75.1894 111.516 75.3179 111.748 75.3797C113.528 75.8542 117.22 75.2969 117.22 75.2969L120.942 78.1732L121.038 76.9248L118.225 74.1965C115.837 71.1919 113.666 68.1998 112.531 65.4426C111.337 62.543 110.156 59.1065 108.701 56.2335C108.477 55.7917 108.116 55.3272 107.787 54.9046C107.24 54.1994 105.514 52.944 105.514 52.944C105.514 52.944 103.223 49.1791 103.347 48.6916L107.03 49.5473L109.688 49.8862C112.109 57.7961 118.272 64.6642 123.595 71.0674C128.023 69.0952 134.151 68.8433 137.469 68.6281C140.863 67.9683 143.575 67.0477 146.767 68.4578C149.082 69.4806 150.855 73.5993 150.496 75.2969C155.037 63.0664 154.256 56.0523 149.38 41.3176C148.674 40.6611 147.667 39.1967 146.176 38.3914ZM132.767 56.6491C131.933 56.1144 132.077 54.7342 132.131 53.884C132.135 53.8246 120.09 52.7906 114.369 52.2994C112.967 52.179 111.944 52.0912 111.572 52.0584C114.015 56.8148 117.117 61.5723 121.24 65.1973C121.24 65.1973 126.267 63.7918 129.09 63.6245C129.847 63.5797 130.595 63.5464 131.335 63.5135C133.359 63.4234 135.329 63.3357 137.299 63.0199L137.156 58.2176C137.156 58.2176 133.976 57.425 132.767 56.6491Z" fill="black"/>
<path fill-rule="evenodd" clip-rule="evenodd" d="M65.8825 107.12L69.4539 110.63C69.6366 111.929 68.3428 113.906 67.988 113.763L70.3556 114.957L71.5612 112.392C71.6344 112.221 71.7449 111.774 71.7817 111.624C72.2816 109.92 75.2544 109.228 79.34 108.276C87.1442 106.459 94.729 102.775 101.179 98.1269C101.179 98.1269 103.52 100.433 105.544 103.213L105.081 104.222C104.485 105.361 103.963 106.489 103.504 107.679L103.394 107.712C103.134 107.789 102.757 107.902 102.283 108.043C101.336 108.324 100.007 108.719 98.4758 109.17C95.4138 110.072 91.5492 111.199 88.3337 112.104C86.181 112.709 85.068 117.689 84.2592 119.558L85.803 119.704C85.803 119.704 87.0231 113.752 88.6642 113.286C91.7884 112.464 95.5272 111.66 98.4915 111.061C99.9733 110.761 101.259 110.513 102.174 110.34L102.494 110.279L102.637 110.252C102.292 111.441 101.991 112.722 101.724 114.148C101.456 115.586 100.992 118.994 100.924 119.615C114.86 118.22 122.778 112.9 129.593 107.698C129.593 107.698 129.322 100.228 130.222 95.4871C131.286 89.8822 130.222 80.1953 130.222 80.1953C134.635 79.7688 136.246 79.4324 139.764 78.7113L140.467 76.762C140.467 76.762 133.208 78.2763 127.89 78.7113C127.89 78.7113 127.924 90.2518 125.214 95.135C123.923 97.4626 120.49 100.27 120.49 100.27C114.942 94.8822 110.782 90.7936 104.49 86.642C103.164 85.9586 102.012 85.6534 100.863 85.8004C99.7225 85.9462 98.6815 86.5251 97.5536 87.4007C95.3911 89.0794 92.8488 90.4033 90.5304 91.8521C83.0644 96.5175 76.484 103.584 67.752 105.676C64.444 106.171 60.7957 105.727 57.6231 104.671C56.3845 104.143 55.2733 104.974 54.6545 106.045L55.4527 106.743C56.4652 104.812 58.4871 105.51 59.8523 106.045L59.3194 109.327L62.9686 111.455L63.5266 107.07C64.2633 107.161 65.0236 107.176 65.8825 107.12ZM106.519 101.79C107.27 100.45 107.312 100.348 108.295 98.8004C109.023 97.6533 110.044 96.2603 110.876 95.1626C111.293 94.6119 111.624 94.2164 111.892 93.874C109.401 91.6869 106.885 89.2562 103.926 87.7319C102.719 87.11 101.828 86.9141 101.02 87.0174C100.203 87.1219 99.3719 87.5447 98.3098 88.3691C98.1038 88.529 97.1259 89.156 95.837 89.9713C94.5256 90.8007 92.8436 91.8551 91.1844 92.8919C89.733 93.7989 88.4797 94.7326 87.4716 95.4837C86.7859 95.9945 86.2136 96.4209 85.7697 96.6968L90.3194 102.234C94.1203 100.712 98.2008 98.0639 101.424 95.5529L106.519 101.79ZM81.8012 99.4501L85.5306 104.945C86.2318 104.817 87.6453 103.975 88.277 103.675C88.277 103.675 85.8392 100.352 84.2226 97.7041C83.7713 98.1054 83.3341 98.3924 82.887 98.686C82.5352 98.917 82.1772 99.1521 81.8012 99.4501ZM83.512 105.751L80.3867 100.525C79.6695 101.072 78.8902 101.641 78.0605 102.211L81.0221 106.356C81.8815 106.13 82.658 105.988 83.512 105.751ZM79.6305 106.613L77.0381 102.894C76.3233 103.359 75.5807 103.815 74.8221 104.244L77.1993 107.298C77.8654 107.185 78.6672 106.97 79.6305 106.613ZM75.9398 107.692L73.8643 104.957C73.3853 105.204 72.8454 105.391 72.3198 105.572C72.0183 105.676 71.7216 105.778 71.4436 105.89L74.0114 108.382C74.6384 108.136 75.2827 107.907 75.9398 107.692ZM72.7908 108.897L70.1706 106.351C69.4148 106.595 68.2131 106.845 67.4827 106.954L70.6305 110.102C72.0655 108.961 72.834 108.891 72.7908 108.897Z" fill="black"/>
<path fill-rule="evenodd" clip-rule="evenodd" d="M6.69168 52.8161L13.3834 60.0678L6.69168 67.3195L0 60.0678L6.69168 52.8161ZM6.69168 54.5227L1.57481 60.0678L6.69168 65.6129L11.8085 60.0678L6.69168 54.5227Z" fill="black"/>
<path fill-rule="evenodd" clip-rule="evenodd" d="M16.5204 52.8161L23.9994 60.0091L17.6962 66.0985L17.6962 67.3195H16.5204V52.8161ZM17.6962 64.4255L22.37 60.015L17.6962 55.6698L17.6962 64.4255Z" fill="black"/>
<path fill-rule="evenodd" clip-rule="evenodd" d="M55.2852 52.8161H56.4661V64.0144L66.6766 54.245V65.4829H65.4957V57.5501L55.2852 67.3195V52.8161Z" fill="black"/>
<path fill-rule="evenodd" clip-rule="evenodd" d="M60.3703 54.3252L59.1354 53.5949L58.5205 54.5725L60.541 55.7674L62.2654 54.1257L61.4381 53.3087L60.3703 54.3252Z" fill="black"/>
<path fill-rule="evenodd" clip-rule="evenodd" d="M33.6046 52.8161L40.5198 60.1457L34.2076 65.9808V67.3195H33.0311V65.9808L27.1364 60.1447L33.6046 52.8161ZM34.2076 64.4073L38.8764 60.0914L34.2076 55.1428V64.4073ZM33.0311 55.1428V64.4073L28.7291 60.0923L33.0311 55.1428Z" fill="black"/>
<path d="M43.2754 60.0678L49.9671 67.3195V65.6129L45.2021 60.6403H50.3604V59.4953H45.2021L49.9671 54.5227V52.8161L43.2754 60.0678Z" fill="black"/>
<path d="M99.1433 0.979017C125.45 3.9949 147.361 23.4858 151.39 49.938C156.249 81.8415 133.255 111.79 100.032 116.83C72.7087 120.974 46.9761 106.981 35.9958 84.1333L35.1763 84.4061C43.5306 108.252 65.7742 125.801 92.6037 126.941C127.744 128.435 157.444 101.216 158.941 66.1451C160.421 31.4717 133.78 2.10507 99.2166 0L99.1433 0.979017Z" fill="black"/>
<path d="M0 72.4384H66.6766V74.1447H0V72.4384Z" fill="black"/>
<path d="M1.91736 16.3668L4.35027 22.7845L6.77739 16.3668H8.67158V24.7397H7.21183V21.9794L7.35665 18.2875L4.86582 24.7397H3.81735L1.33231 18.2933L1.47712 21.9794V24.7397H0.0173779V16.3668H1.91736Z" fill="black"/>
<path d="M12.4658 22.7385L13.7401 18.5175H15.2404L12.7496 25.6828C12.3673 26.7294 11.7185 27.2528 10.8033 27.2528C10.5986 27.2528 10.3727 27.2182 10.1255 27.1492V26.0681L10.392 26.0854C10.7473 26.0854 11.0137 26.0202 11.1914 25.8899C11.3729 25.7633 11.5158 25.5486 11.62 25.2458L11.8228 24.711L9.62157 18.5175H11.1392L12.4658 22.7385Z" fill="black"/>
<path d="M20.8014 20.2197C20.8014 20.4958 20.7164 20.7507 20.5465 20.9846C20.3804 21.2146 20.1449 21.3986 19.8398 21.5366C20.5581 21.7858 20.9172 22.267 20.9172 22.98C20.9172 23.5513 20.6836 24.0075 20.2163 24.3487C19.749 24.6861 19.1234 24.8547 18.3395 24.8547C17.8606 24.8547 17.4243 24.7761 17.0304 24.619C16.6365 24.4579 16.3294 24.2318 16.1093 23.9404C15.8892 23.6452 15.7791 23.2963 15.7791 22.8938H17.181C17.181 23.1468 17.2949 23.3596 17.5227 23.5321C17.7506 23.7008 18.0383 23.7851 18.3858 23.7851C18.7295 23.7851 19.0018 23.7065 19.2026 23.5493C19.4073 23.3883 19.5096 23.1794 19.5096 22.9225C19.5096 22.6197 19.4208 22.4011 19.2431 22.267C19.0655 22.1328 18.7913 22.0657 18.4206 22.0657H17.4127V21.0593H18.4553C19.0848 21.0517 19.3995 20.7948 19.3995 20.2887C19.3995 20.0357 19.3088 19.8383 19.1273 19.6964C18.9458 19.5546 18.6967 19.4837 18.38 19.4837C18.0711 19.4837 17.8104 19.5603 17.598 19.7137C17.3856 19.8632 17.2794 20.053 17.2794 20.283H15.8776C15.8776 19.7348 16.1093 19.2862 16.5727 18.9373C17.0361 18.5846 17.6251 18.4083 18.3395 18.4083C19.1157 18.4083 19.7201 18.5655 20.1526 18.8798C20.5851 19.1942 20.8014 19.6408 20.8014 20.2197Z" fill="black"/>
<path d="M23.6282 20.4958H25.0068C25.5204 20.4958 25.9684 20.5839 26.3507 20.7603C26.733 20.9366 27.0227 21.1839 27.2196 21.5021C27.4204 21.8203 27.5208 22.1903 27.5208 22.612C27.5208 23.2522 27.293 23.766 26.8373 24.1532C26.3816 24.5404 25.7753 24.7359 25.0184 24.7397H22.2206V18.5175H23.6282V20.4958ZM29.9711 24.7397H28.5635V18.5175H29.9711V24.7397ZM23.6282 21.6171V23.6241H25.001C25.3447 23.6241 25.615 23.5398 25.812 23.3711C26.0128 23.1986 26.1132 22.9551 26.1132 22.6407C26.1132 22.3264 26.0147 22.0791 25.8178 21.8989C25.6247 21.7149 25.3621 21.621 25.03 21.6171H23.6282Z" fill="black"/>
<path d="M33.8869 22.2785H33.1744V24.7397H31.7668V18.5175H33.1744V21.0018H33.7942L35.5262 18.5175H37.264L34.9991 21.4964L37.4552 24.7397H35.6247L33.8869 22.2785Z" fill="black"/>
<path d="M41.9735 24.7397C41.9117 24.6209 41.8576 24.4273 41.8113 24.1589C41.3633 24.6228 40.8149 24.8547 40.1661 24.8547C39.5367 24.8547 39.0231 24.6765 38.6253 24.3199C38.2275 23.9634 38.0287 23.5225 38.0287 22.9973C38.0287 22.334 38.2758 21.8261 38.7701 21.4734C39.2683 21.1168 39.9789 20.9386 40.9018 20.9386H41.7649V20.5303C41.7649 20.2082 41.6742 19.9514 41.4927 19.7597C41.3112 19.5642 41.035 19.4664 40.6643 19.4664C40.3438 19.4664 40.0812 19.5469 39.8765 19.7079C39.6718 19.8651 39.5695 20.0664 39.5695 20.3117H38.1619C38.1619 19.9705 38.2758 19.6523 38.5037 19.3571C38.7315 19.0581 39.0404 18.8242 39.4305 18.6556C39.8244 18.4869 40.2627 18.4025 40.7454 18.4025C41.4791 18.4025 42.0642 18.5866 42.5006 18.9546C42.937 19.3188 43.1609 19.8325 43.1725 20.4958V23.3021C43.1725 23.8618 43.2517 24.3084 43.41 24.642V24.7397H41.9735ZM40.4268 23.7334C40.7049 23.7334 40.9655 23.6663 41.2088 23.5321C41.456 23.3979 41.6413 23.2177 41.7649 22.9915V21.8184H41.0061C40.4847 21.8184 40.0928 21.9085 39.8302 22.0887C39.5676 22.2689 39.4363 22.5238 39.4363 22.8535C39.4363 23.1219 39.5251 23.3366 39.7027 23.4976C39.8842 23.6548 40.1256 23.7334 40.4268 23.7334Z" fill="black"/>
<path d="M49.9731 18.5175V24.7397H48.5655V19.6447H46.7929L46.6771 21.8127C46.6037 22.8554 46.401 23.6049 46.0688 24.0612C45.7406 24.5135 45.2366 24.7397 44.557 24.7397H44.1225L44.1167 23.5781L44.4064 23.5493C44.7153 23.5072 44.9393 23.3212 45.0783 22.9915C45.2212 22.658 45.3119 22.0523 45.3506 21.1743L45.4664 18.5175H49.9731Z" fill="black"/>
<path d="M52.9853 20.4958H54.3639C54.8775 20.4958 55.3255 20.5839 55.7078 20.7603C56.0901 20.9366 56.3797 21.1839 56.5767 21.5021C56.7775 21.8203 56.8779 22.1903 56.8779 22.612C56.8779 23.2522 56.6501 23.766 56.1944 24.1532C55.7387 24.5404 55.1324 24.7359 54.3755 24.7397H51.5776V18.5175H52.9853V20.4958ZM52.9853 21.6171V23.6241H54.3581C54.7018 23.6241 54.9721 23.5398 55.1691 23.3711C55.3699 23.1986 55.4703 22.9551 55.4703 22.6407C55.4703 22.3264 55.3718 22.0791 55.1749 21.8989C54.9818 21.7149 54.7192 21.621 54.3871 21.6171H52.9853Z" fill="black"/>
<path d="M63.3135 24.7397H61.9059V22.2267H59.4672V24.7397H58.0596V18.5175H59.4672V21.1111H61.9059V18.5175H63.3135V24.7397Z" fill="black"/>
<path d="M66.3315 20.4958H67.7101C68.2238 20.4958 68.6717 20.5839 69.054 20.7603C69.4363 20.9366 69.726 21.1839 69.9229 21.5021C70.1237 21.8203 70.2241 22.1903 70.2241 22.612C70.2241 23.2522 69.9963 23.766 69.5406 24.1532C69.0849 24.5404 68.4786 24.7359 67.7217 24.7397H64.9239V18.5175H66.3315V20.4958ZM72.6744 24.7397H71.2668V18.5175H72.6744V24.7397ZM66.3315 21.6171V23.6241H67.7044C68.048 23.6241 68.3184 23.5398 68.5153 23.3711C68.7161 23.1986 68.8165 22.9551 68.8165 22.6407C68.8165 22.3264 68.7181 22.0791 68.5211 21.8989C68.328 21.7149 68.0654 21.621 67.7333 21.6171H66.3315Z" fill="black"/>
<path d="M78.2759 18.5175H79.6777V24.7397H78.2759V20.5878L75.8198 24.7397H74.418V18.5175H75.8198V22.6695L78.2759 18.5175ZM78.9363 16.131C78.9363 16.6141 78.7664 17.0051 78.4265 17.3042C78.0867 17.6032 77.6329 17.7527 77.0653 17.7527C76.4976 17.7527 76.0438 17.6032 75.704 17.3042C75.3642 17.0051 75.1942 16.6141 75.1942 16.131H76.2485C76.2485 16.3841 76.3199 16.5815 76.4628 16.7234C76.6096 16.8614 76.8104 16.9304 77.0653 16.9304C77.3201 16.9304 77.519 16.8614 77.6619 16.7234C77.8048 16.5815 77.8762 16.3841 77.8762 16.131H78.9363Z" fill="black"/>
<path d="M89.0618 19.6274H87.0286V24.7397H85.621V19.6274H83.6109V18.5175H89.0618V19.6274Z" fill="black"/>
<path d="M92.3926 24.8547C91.5005 24.8547 90.7764 24.5768 90.2203 24.0209C89.6681 23.4612 89.392 22.7174 89.392 21.7897V21.6171C89.392 20.9961 89.5117 20.4421 89.7511 19.9552C89.9944 19.4645 90.3343 19.083 90.7706 18.8108C91.207 18.5386 91.6936 18.4025 92.2304 18.4025C93.0838 18.4025 93.7423 18.6728 94.2057 19.2134C94.6729 19.7539 94.9066 20.5188 94.9066 21.5079V22.0714H90.8112C90.8537 22.5852 91.0255 22.9915 91.3267 23.2906C91.6318 23.5896 92.0141 23.7391 92.4737 23.7391C93.1186 23.7391 93.6438 23.4803 94.0493 22.9628L94.8081 23.6816C94.5571 24.0535 94.2211 24.3429 93.8002 24.55C93.3831 24.7531 92.9139 24.8547 92.3926 24.8547ZM92.2246 19.5239C91.8384 19.5239 91.5256 19.6581 91.2862 19.9265C91.0506 20.1948 90.9 20.5686 90.8344 21.0478H93.5163V20.9443C93.4855 20.4766 93.3599 20.1239 93.1398 19.8862C92.9197 19.6447 92.6146 19.5239 92.2246 19.5239Z" fill="black"/>
<path d="M99.7492 24.7397C99.6874 24.6209 99.6334 24.4273 99.587 24.1589C99.1391 24.6228 98.5907 24.8547 97.9419 24.8547C97.3125 24.8547 96.7988 24.6765 96.4011 24.3199C96.0033 23.9634 95.8044 23.5225 95.8044 22.9973C95.8044 22.334 96.0516 21.8261 96.5459 21.4734C97.0441 21.1168 97.7546 20.9386 98.6776 20.9386H99.5407V20.5303C99.5407 20.2082 99.4499 19.9514 99.2684 19.7597C99.0869 19.5642 98.8108 19.4664 98.4401 19.4664C98.1196 19.4664 97.857 19.5469 97.6523 19.7079C97.4476 19.8651 97.3453 20.0664 97.3453 20.3117H95.9377C95.9377 19.9705 96.0516 19.6523 96.2794 19.3571C96.5073 19.0581 96.8162 18.8242 97.2063 18.6556C97.6002 18.4869 98.0385 18.4025 98.5212 18.4025C99.2549 18.4025 99.84 18.5866 100.276 18.9546C100.713 19.3188 100.937 19.8325 100.948 20.4958V23.3021C100.948 23.8618 101.027 24.3084 101.186 24.642V24.7397H99.7492ZM98.2026 23.7334C98.4806 23.7334 98.7413 23.6663 98.9846 23.5321C99.2318 23.3979 99.4171 23.2177 99.5407 22.9915V21.8184H98.7819C98.2605 21.8184 97.8685 21.9085 97.6059 22.0887C97.3434 22.2689 97.2121 22.5238 97.2121 22.8535C97.2121 23.1219 97.3009 23.3366 97.4785 23.4976C97.66 23.6548 97.9014 23.7334 98.2026 23.7334Z" fill="black"/>
<path d="M107.262 19.6274H105.229V24.7397H103.821V19.6274H101.811V18.5175H107.262V19.6274Z" fill="black"/>
<path d="M113.692 21.6919C113.692 22.6542 113.472 23.4228 113.032 23.9979C112.591 24.5691 112.001 24.8547 111.259 24.8547C110.572 24.8547 110.021 24.6305 109.608 24.1819V27.132H108.201V18.5175H109.498L109.556 19.1501C109.969 18.6517 110.531 18.4025 111.242 18.4025C112.006 18.4025 112.605 18.6862 113.038 19.2536C113.474 19.8172 113.692 20.6012 113.692 21.6056V21.6919ZM112.29 21.5711C112.29 20.9501 112.165 20.4574 111.914 20.0932C111.667 19.729 111.311 19.5469 110.848 19.5469C110.273 19.5469 109.859 19.7827 109.608 20.2542V23.0145C109.863 23.4976 110.28 23.7391 110.86 23.7391C111.307 23.7391 111.657 23.5608 111.908 23.2043C112.163 22.8439 112.29 22.2995 112.29 21.5711Z" fill="black"/>
<path d="M1.40761 34.7592H2.58931C2.69358 33.9656 3.00252 33.3312 3.51613 32.8558C4.02975 32.3804 4.67852 32.1427 5.46246 32.1427C6.30818 32.1427 6.99365 32.413 7.51884 32.9535C8.0479 33.4941 8.33368 34.211 8.37615 35.1043L8.38195 35.4321C8.38195 36.0455 8.26223 36.5937 8.0228 37.0767C7.78724 37.5598 7.4474 37.9336 7.0033 38.1981C6.56306 38.4626 6.05331 38.5949 5.47404 38.5949C4.66307 38.5949 3.99692 38.3457 3.47558 37.8473C2.95811 37.3489 2.65882 36.6934 2.57772 35.8806H1.40761V38.4799H0V32.2577H1.40761V34.7592ZM3.96216 35.4321C3.96216 36.0723 4.0954 36.5745 4.36186 36.9387C4.62832 37.2991 4.99905 37.4793 5.47404 37.4793C5.94904 37.4793 6.31784 37.2953 6.58044 36.9272C6.84304 36.5592 6.97434 36.0205 6.97434 35.3113C6.97434 34.6711 6.83724 34.1708 6.56306 33.8104C6.29274 33.4462 5.92587 33.2641 5.46246 33.2641C5.00291 33.2641 4.63797 33.4462 4.36765 33.8104C4.09733 34.1708 3.96216 34.7113 3.96216 35.4321Z" fill="black"/>
<path d="M14.8523 38.4799H13.4447V35.9669H11.006V38.4799H9.5984V32.2577H11.006V34.8512H13.4447V32.2577H14.8523V38.4799Z" fill="black"/>
<path d="M16.0919 35.3113C16.0919 34.7017 16.2136 34.1535 16.4569 33.6666C16.7002 33.1759 17.0419 32.8002 17.4822 32.5395C17.9224 32.275 18.4283 32.1427 18.9999 32.1427C19.8456 32.1427 20.531 32.413 21.0562 32.9535C21.5853 33.4941 21.8711 34.211 21.9135 35.1043L21.9193 35.4321C21.9193 36.0455 21.7996 36.5937 21.5602 37.0767C21.3246 37.5598 20.9848 37.9336 20.5407 38.1981C20.1005 38.4626 19.5907 38.5949 19.0114 38.5949C18.1271 38.5949 17.4185 38.3035 16.8855 37.7208C16.3565 37.1342 16.0919 36.3541 16.0919 35.3803V35.3113ZM17.4996 35.4321C17.4996 36.0723 17.6328 36.5745 17.8993 36.9387C18.1657 37.2991 18.5364 37.4793 19.0114 37.4793C19.4864 37.4793 19.8552 37.2953 20.1178 36.9272C20.3843 36.5592 20.5175 36.0205 20.5175 35.3113C20.5175 34.6826 20.3804 34.1842 20.1062 33.8161C19.8359 33.4481 19.4671 33.2641 18.9999 33.2641C18.5403 33.2641 18.1754 33.4462 17.905 33.8104C17.6347 34.1708 17.4996 34.7113 17.4996 35.4321Z" fill="black"/>
<path d="M27.2833 33.3848H24.5608V38.4799H23.159V32.2577H27.2833V33.3848Z" fill="black"/>
<path d="M27.7004 35.3113C27.7004 34.7017 27.822 34.1535 28.0653 33.6666C28.3086 33.1759 28.6504 32.8002 29.0906 32.5395C29.5309 32.275 30.0368 32.1427 30.6083 32.1427C31.454 32.1427 32.1395 32.413 32.6647 32.9535C33.1937 33.4941 33.4795 34.211 33.522 35.1043L33.5278 35.4321C33.5278 36.0455 33.4081 36.5937 33.1686 37.0767C32.9331 37.5598 32.5932 37.9336 32.1491 38.1981C31.7089 38.4626 31.1991 38.5949 30.6199 38.5949C29.7355 38.5949 29.0269 38.3035 28.494 37.7208C27.9649 37.1342 27.7004 36.3541 27.7004 35.3803V35.3113ZM29.108 35.4321C29.108 36.0723 29.2412 36.5745 29.5077 36.9387C29.7742 37.2991 30.1449 37.4793 30.6199 37.4793C31.0949 37.4793 31.4637 37.2953 31.7263 36.9272C31.9927 36.5592 32.126 36.0205 32.126 35.3113C32.126 34.6826 31.9889 34.1842 31.7147 33.8161C31.4444 33.4481 31.0756 33.2641 30.6083 33.2641C30.1487 33.2641 29.7838 33.4462 29.5135 33.8104C29.2432 34.1708 29.108 34.7113 29.108 35.4321Z" fill="black"/>
<path d="M41.4174 38.4799C41.3556 38.361 41.3015 38.1674 41.2552 37.8991C40.8072 38.363 40.2588 38.5949 39.6101 38.5949C38.9806 38.5949 38.467 38.4166 38.0692 38.0601C37.6715 37.7036 37.4726 37.2627 37.4726 36.7374C37.4726 36.0742 37.7197 35.5662 38.214 35.2135C38.7122 34.857 39.4228 34.6787 40.3457 34.6787H41.2088V34.2704C41.2088 33.9484 41.1181 33.6915 40.9366 33.4998C40.7551 33.3043 40.479 33.2066 40.1082 33.2066C39.7877 33.2066 39.5251 33.2871 39.3204 33.4481C39.1158 33.6053 39.0134 33.8065 39.0134 34.0519H37.6058C37.6058 33.7107 37.7197 33.3925 37.9476 33.0973C38.1754 32.7983 38.4844 32.5644 38.8744 32.3957C39.2683 32.227 39.7066 32.1427 40.1893 32.1427C40.9231 32.1427 41.5081 32.3267 41.9445 32.6948C42.3809 33.059 42.6049 33.5727 42.6164 34.2359V37.0422C42.6164 37.602 42.6956 38.0486 42.8539 38.3821V38.4799H41.4174ZM39.8707 37.4735C40.1488 37.4735 40.4094 37.4064 40.6527 37.2723C40.8999 37.1381 41.0853 36.9579 41.2088 36.7317V35.5586H40.45C39.9286 35.5586 39.5367 35.6487 39.2741 35.8288C39.0115 36.009 38.8802 36.264 38.8802 36.5937C38.8802 36.862 38.969 37.0767 39.1466 37.2378C39.3281 37.3949 39.5695 37.4735 39.8707 37.4735Z" fill="black"/>
<path d="M46.3179 36.0186H45.6054V38.4799H44.1978V32.2577H45.6054V34.742H46.2253L47.9572 32.2577H49.695L47.4301 35.2365L49.8862 38.4799H48.0557L46.3179 36.0186Z" fill="black"/>
<path d="M55.5919 33.3676H53.5587V38.4799H52.1511V33.3676H50.1411V32.2577H55.5919V33.3676Z" fill="black"/>
<path d="M58.9227 38.5949C58.0306 38.5949 57.3066 38.317 56.7505 37.7611C56.1982 37.2013 55.9221 36.4576 55.9221 35.5298V35.3573C55.9221 34.7362 56.0418 34.1823 56.2813 33.6954C56.5246 33.2046 56.8644 32.8232 57.3008 32.551C57.7371 32.2788 58.2237 32.1427 58.7605 32.1427C59.614 32.1427 60.2724 32.413 60.7358 32.9535C61.2031 33.4941 61.4367 34.2589 61.4367 35.248V35.8116H57.3413C57.3838 36.3253 57.5556 36.7317 57.8569 37.0307C58.1619 37.3298 58.5443 37.4793 59.0038 37.4793C59.6487 37.4793 60.1739 37.2205 60.5794 36.7029L61.3382 37.4218C61.0872 37.7936 60.7513 38.0831 60.3303 38.2901C59.9133 38.4933 59.4441 38.5949 58.9227 38.5949ZM58.7547 33.2641C58.3685 33.2641 58.0557 33.3983 57.8163 33.6666C57.5808 33.935 57.4301 34.3088 57.3645 34.788H60.0465V34.6845C60.0156 34.2168 59.8901 33.8641 59.67 33.6264C59.4498 33.3848 59.1448 33.2641 58.7547 33.2641ZM56.6057 30.6245C56.6057 30.4328 56.6694 30.2718 56.7968 30.1415C56.9281 30.0111 57.1077 29.946 57.3355 29.946C57.5634 29.946 57.7429 30.0111 57.8742 30.1415C58.0055 30.2718 58.0712 30.4328 58.0712 30.6245C58.0712 30.8162 58.0055 30.9772 57.8742 31.1076C57.7429 31.2379 57.5634 31.3031 57.3355 31.3031C57.1077 31.3031 56.9281 31.2379 56.7968 31.1076C56.6694 30.9772 56.6057 30.8162 56.6057 30.6245ZM59.2529 30.6303C59.2529 30.4386 59.3166 30.2776 59.444 30.1472C59.5753 30.0169 59.7549 29.9517 59.9828 29.9517C60.2106 29.9517 60.3902 30.0169 60.5215 30.1472C60.6528 30.2776 60.7184 30.4386 60.7184 30.6303C60.7184 30.822 60.6528 30.983 60.5215 31.1133C60.3902 31.2437 60.2106 31.3089 59.9828 31.3089C59.7549 31.3089 59.5753 31.2437 59.444 31.1133C59.3166 30.983 59.2529 30.822 59.2529 30.6303Z" fill="black"/>
<path d="M68.0229 35.4321C68.0229 36.3943 67.8028 37.163 67.3626 37.7381C66.9223 38.3093 66.3315 38.5949 65.59 38.5949C64.9026 38.5949 64.3523 38.3706 63.9391 37.9221V40.8722H62.5315V32.2577H63.8291L63.887 32.8903C64.3002 32.3919 64.8621 32.1427 65.5727 32.1427C66.3373 32.1427 66.9359 32.4264 67.3684 32.9938C67.8048 33.5574 68.0229 34.3414 68.0229 35.3458V35.4321ZM66.6211 35.3113C66.6211 34.6902 66.4956 34.1976 66.2446 33.8334C65.9975 33.4692 65.6422 33.2871 65.1788 33.2871C64.6034 33.2871 64.1901 33.5229 63.9391 33.9944V36.7547C64.194 37.2378 64.6111 37.4793 65.1903 37.4793C65.6383 37.4793 65.9878 37.301 66.2388 36.9445C66.4937 36.5841 66.6211 36.0397 66.6211 35.3113Z" fill="black"/>
<path d="M72.9641 38.4799C72.9023 38.361 72.8482 38.1674 72.8019 37.8991C72.3539 38.363 71.8055 38.5949 71.1568 38.5949C70.5273 38.5949 70.0137 38.4166 69.6159 38.0601C69.2182 37.7036 69.0193 37.2627 69.0193 36.7374C69.0193 36.0742 69.2664 35.5662 69.7607 35.2135C70.2589 34.857 70.9695 34.6787 71.8924 34.6787H72.7555V34.2704C72.7555 33.9484 72.6648 33.6915 72.4833 33.4998C72.3018 33.3043 72.0257 33.2066 71.6549 33.2066C71.3344 33.2066 71.0718 33.2871 70.8671 33.4481C70.6625 33.6053 70.5601 33.8065 70.5601 34.0519H69.1525C69.1525 33.7107 69.2664 33.3925 69.4943 33.0973C69.7221 32.7983 70.0311 32.5644 70.4211 32.3957C70.815 32.227 71.2533 32.1427 71.736 32.1427C72.4698 32.1427 73.0548 32.3267 73.4912 32.6948C73.9276 33.059 74.1516 33.5727 74.1631 34.2359V37.0422C74.1631 37.602 74.2423 38.0486 74.4006 38.3821V38.4799H72.9641ZM71.4174 37.4735C71.6955 37.4735 71.9561 37.4064 72.1994 37.2723C72.4466 37.1381 72.632 36.9579 72.7555 36.7317V35.5586H71.9967C71.4754 35.5586 71.0834 35.6487 70.8208 35.8288C70.5582 36.009 70.4269 36.264 70.4269 36.5937C70.4269 36.862 70.5157 37.0767 70.6934 37.2378C70.8749 37.3949 71.1162 37.4735 71.4174 37.4735Z" fill="black"/>
</svg>
