<svg width="236" height="189" viewBox="0 0 236 189" fill="none" xmlns="http://www.w3.org/2000/svg">
<g opacity="0.98">
<path fill-rule="evenodd" clip-rule="evenodd" d="M216.965 57.1336C212.516 54.7259 208.412 54.5491 204.015 57.3113C202.176 58.4667 200.665 60.1417 199.629 61.4883C198.892 62.4461 198.246 63.4508 197.661 64.499C198.237 65.1277 198.832 65.7376 199.482 66.2975C199.249 68.9336 196.556 69.9129 195.942 70.4352C195.121 71.134 196.629 73.2202 197.323 74.072L198.209 73.4101C197.39 71.871 197.661 71.2492 197.661 71.2492C197.661 71.2492 200.553 69.2537 201.812 67.8154C203.227 68.8112 205.324 68.4896 206.043 70.04C206.809 71.6918 206.018 74.4062 205.718 75.6698C205.575 76.2707 205.168 77.5549 205.168 77.5549C205.168 77.5549 204.601 79.3685 204.384 80.3203C204.12 81.483 203.469 82.4776 203.706 85.2229C199.139 83.3238 196.79 83.6056 197.848 79.3026L196.605 76.1689L165.281 70.8768C164.369 68.3192 161.795 66.5665 159.211 65.939C156.657 65.3185 153.687 65.7218 152.084 67.9272C147.666 67.1767 146.877 67.0759 143.533 66.6485C143.176 66.6682 142.676 66.7249 142.296 66.9752C140.452 68.1883 140.205 72.0539 141.269 73.9278C141.431 74.2116 141.687 74.3711 141.832 74.4503C145.06 75.0247 148.016 75.2249 151.223 75.7355C151.485 76.1878 151.925 76.9529 152.43 77.8604C153.251 79.3376 154.231 81.1711 154.904 82.6492C159.157 91.9954 159.005 102.559 164.682 111.426C164.983 111.896 165.521 112.087 165.865 112.179C168.507 112.885 173.987 112.056 173.987 112.056L179.511 116.337L179.653 114.479L175.478 110.418C171.935 105.947 168.711 101.494 167.027 97.3909C165.256 93.0758 163.502 87.9616 161.342 83.686C161.01 83.0286 160.474 82.3373 159.986 81.7084C159.173 80.6589 156.612 78.7907 156.612 78.7907C156.612 78.7907 153.211 73.1878 153.396 72.4623L158.862 73.7358L162.808 74.2401C166.401 86.0115 175.548 96.2325 183.449 105.762C190.021 102.827 199.117 102.452 204.043 102.132C209.079 101.15 213.104 99.7796 217.842 101.878C221.278 103.4 223.91 109.53 223.378 112.056C230.118 93.8547 228.959 83.4164 221.721 61.4883C220.673 60.5114 219.179 58.3321 216.965 57.1336ZM197.063 84.3045C195.826 83.5088 196.038 81.4548 196.119 80.1896C196.124 80.1012 178.247 78.5623 169.756 77.8314C167.674 77.6521 166.156 77.5215 165.604 77.4727C169.23 84.5512 173.835 91.6312 179.954 97.0259C179.954 97.0259 187.415 94.9342 191.605 94.6853C192.729 94.6186 193.839 94.5691 194.937 94.5201C197.942 94.386 200.866 94.2555 203.789 93.7855L203.578 86.6388C203.578 86.6388 198.858 85.4592 197.063 84.3045Z" fill="white"/>
<path fill-rule="evenodd" clip-rule="evenodd" d="M97.7879 159.415L103.089 164.639C103.36 166.572 101.44 169.514 100.913 169.301L104.427 171.078L106.217 167.26C106.325 167.006 106.489 166.341 106.544 166.118C107.286 163.582 111.698 162.551 117.763 161.135C129.346 158.431 140.604 152.949 150.178 146.031C150.178 146.031 153.652 149.463 156.656 153.6L155.97 155.101C155.085 156.797 154.31 158.476 153.628 160.247L153.465 160.295C153.08 160.411 152.519 160.578 151.816 160.788C150.411 161.207 148.437 161.794 146.165 162.465C141.62 163.807 135.884 165.486 131.112 166.831C127.916 167.732 126.265 175.143 125.064 177.925L127.355 178.142C127.355 178.142 129.166 169.284 131.602 168.591C136.239 167.368 141.789 166.172 146.189 165.279C148.388 164.833 150.297 164.464 151.655 164.206L152.13 164.116L152.342 164.076C151.829 165.845 151.383 167.751 150.987 169.874C150.589 172.014 149.9 177.085 149.8 178.01C170.485 175.934 182.236 168.016 192.351 160.275C192.351 160.275 191.949 149.158 193.285 142.103C194.864 133.762 193.285 119.346 193.285 119.346C199.836 118.711 202.227 118.21 207.449 117.137L208.492 114.236C208.492 114.236 197.718 116.49 189.824 117.137C189.824 117.137 189.874 134.312 185.853 141.579C183.936 145.043 178.841 149.22 178.841 149.22C170.606 141.203 164.431 135.118 155.093 128.94C153.124 127.923 151.414 127.468 149.708 127.687C148.016 127.904 146.471 128.766 144.796 130.069C141.587 132.567 137.813 134.537 134.372 136.693C123.291 143.636 113.523 154.152 100.563 157.266C95.6528 158.003 90.2377 157.342 85.5286 155.771C83.6903 154.984 82.0409 156.222 81.1224 157.815L82.3072 158.854C83.8099 155.979 86.811 157.018 88.8374 157.815L88.0464 162.699L93.4628 165.866L94.2911 159.341C95.3845 159.475 96.513 159.498 97.7879 159.415ZM158.104 151.482C159.219 149.488 159.281 149.337 160.74 147.034C161.821 145.327 163.336 143.254 164.57 141.62C165.19 140.8 165.681 140.212 166.079 139.702C162.381 136.447 158.647 132.83 154.256 130.562C152.464 129.636 151.141 129.345 149.942 129.498C148.728 129.654 147.495 130.283 145.919 131.51C145.613 131.748 144.162 132.681 142.249 133.894C140.302 135.129 137.806 136.698 135.343 138.241C133.189 139.59 131.328 140.98 129.832 142.098C128.814 142.858 127.965 143.493 127.306 143.903L134.059 152.143C139.701 149.878 145.757 145.938 150.541 142.201L158.104 151.482ZM121.416 148.001L126.951 156.179C127.992 155.988 130.09 154.735 131.028 154.288C131.028 154.288 127.409 149.343 125.01 145.402C124.34 145.999 123.691 146.427 123.027 146.863C122.505 147.207 121.974 147.557 121.416 148.001ZM123.955 157.378L119.316 149.601C118.252 150.414 117.095 151.262 115.863 152.109L120.259 158.278C121.535 157.941 122.687 157.731 123.955 157.378ZM118.194 158.66L114.346 153.126C113.285 153.818 112.183 154.496 111.057 155.134L114.585 159.68C115.574 159.512 116.764 159.191 118.194 158.66ZM112.716 160.266L109.635 156.195C108.924 156.564 108.123 156.841 107.343 157.111C106.895 157.265 106.455 157.418 106.042 157.584L109.853 161.293C110.784 160.927 111.74 160.587 112.716 160.266ZM108.042 162.059L104.153 158.271C103.031 158.634 101.247 159.005 100.163 159.168L104.835 163.853C106.965 162.154 108.106 162.051 108.042 162.059Z" fill="white"/>
<path fill-rule="evenodd" clip-rule="evenodd" d="M9.9323 78.6004L19.8646 89.3923L9.9323 100.184L0 89.3923L9.9323 78.6004ZM9.9323 81.1401L2.33746 89.3923L9.9323 97.6444L17.5271 89.3923L9.9323 81.1401Z" fill="white"/>
<path fill-rule="evenodd" clip-rule="evenodd" d="M24.5209 78.6004L35.6217 89.3049L26.266 98.367L26.266 100.184H24.5209V78.6004ZM26.266 95.8772L33.2032 89.3137L26.266 82.8472L26.266 95.8772Z" fill="white"/>
<path fill-rule="evenodd" clip-rule="evenodd" d="M82.0586 78.6004H83.8114V95.2655L98.9665 80.7268V97.451H97.2137V85.6455L82.0586 100.184V78.6004Z" fill="white"/>
<path fill-rule="evenodd" clip-rule="evenodd" d="M89.6062 80.8462L87.7732 79.7594L86.8605 81.2141L89.8596 82.9924L92.4191 80.5493L91.1911 79.3334L89.6062 80.8462Z" fill="white"/>
<path fill-rule="evenodd" clip-rule="evenodd" d="M49.8786 78.6004L60.1426 89.5081L50.7736 98.1918V100.184H49.0273V98.1918L40.278 89.5067L49.8786 78.6004ZM50.7736 95.8503L57.7034 89.4273L50.7736 82.0629V95.8503ZM49.0273 82.0629V95.8503L42.6419 89.4287L49.0273 82.0629Z" fill="white"/>
<path d="M64.2326 89.3923L74.1649 100.184V97.6444L67.0924 90.2443H74.7487V88.5403H67.0924L74.1649 81.1401V78.6004L64.2326 89.3923Z" fill="white"/>
<path d="M147.156 1.45696C186.203 5.94517 218.725 34.9514 224.705 74.3172C231.916 121.796 197.787 166.364 148.475 173.864C107.92 180.033 69.7256 159.207 53.4278 125.206L52.2113 125.612C64.6115 161.099 97.6271 187.215 137.449 188.913C189.607 191.136 233.691 150.628 235.913 98.4364C238.11 46.8358 198.566 3.13274 147.265 0L147.156 1.45696Z" fill="white"/>
<path d="M0 107.802H98.9665V110.341H0V107.802Z" fill="white"/>
<path d="M2.8459 24.3569L6.45701 33.9077L10.0595 24.3569H12.871V36.8174H10.7044V32.7095L10.9193 27.2153L7.22222 36.8174H5.666L1.97751 27.2239L2.19246 32.7095V36.8174H0.0257936V24.3569H2.8459Z" fill="white"/>
<path d="M18.5026 33.8392L20.3942 27.5576H22.621L18.9239 38.2209C18.3565 39.7785 17.3935 40.5572 16.035 40.5572C15.7313 40.5572 15.3959 40.5059 15.0291 40.4032V38.7943L15.4246 38.82C15.9519 38.82 16.3474 38.723 16.6111 38.529C16.8805 38.3407 17.0926 38.0212 17.2473 37.5705L17.5483 36.7746L14.2811 27.5576H16.5337L18.5026 33.8392Z" fill="white"/>
<path d="M30.875 30.0908C30.875 30.5016 30.7489 30.881 30.4967 31.229C30.2502 31.5713 29.9006 31.8452 29.4477 32.0506C30.5139 32.4214 31.0469 33.1374 31.0469 34.1986C31.0469 35.0487 30.7002 35.7277 30.0066 36.2354C29.313 36.7375 28.3845 36.9885 27.2209 36.9885C26.5101 36.9885 25.8624 36.8716 25.2778 36.6377C24.6931 36.398 24.2374 36.0614 23.9107 35.6278C23.584 35.1885 23.4206 34.6693 23.4206 34.0703H25.5013C25.5013 34.4468 25.6704 34.7635 26.0086 35.0202C26.3468 35.2712 26.7738 35.3968 27.2897 35.3968C27.7998 35.3968 28.2039 35.2798 28.502 35.0459C28.8058 34.8063 28.9577 34.4953 28.9577 34.1131C28.9577 33.6623 28.8258 33.3371 28.5622 33.1374C28.2985 32.9378 27.8915 32.8379 27.3413 32.8379H25.8452V31.3403H27.3928C28.3271 31.3288 28.7943 30.9466 28.7943 30.1935C28.7943 29.8169 28.6596 29.5231 28.3902 29.312C28.1208 29.1009 27.7511 28.9954 27.2811 28.9954C26.8225 28.9954 26.4356 29.1095 26.1204 29.3377C25.8051 29.5602 25.6475 29.8426 25.6475 30.1849H23.5668C23.5668 29.3691 23.9107 28.7015 24.5985 28.1823C25.2864 27.6575 26.1605 27.395 27.2209 27.395C28.373 27.395 29.27 27.6289 29.912 28.0968C30.554 28.5646 30.875 29.2293 30.875 30.0908Z" fill="white"/>
<path d="M35.0707 30.5016H37.117C37.8794 30.5016 38.5443 30.6328 39.1117 30.8952C39.6792 31.1577 40.1091 31.5257 40.4014 31.9992C40.6995 32.4728 40.8485 33.0233 40.8485 33.6509C40.8485 34.6037 40.5103 35.3682 39.834 35.9445C39.1576 36.5207 38.2577 36.8117 37.1342 36.8174H32.9815V27.5576H35.0707V30.5016ZM44.4854 36.8174H42.3961V27.5576H44.4854V36.8174ZM35.0707 32.1704V35.1571H37.1084C37.6186 35.1571 38.0198 35.0316 38.3121 34.7806C38.6102 34.5238 38.7592 34.1615 38.7592 33.6937C38.7592 33.2259 38.6131 32.8579 38.3207 32.5897C38.0341 32.3159 37.6444 32.1761 37.1514 32.1704H35.0707Z" fill="white"/>
<path d="M50.2976 33.1546H49.24V36.8174H47.1508V27.5576H49.24V31.2547H50.16L52.7308 27.5576H55.3101L51.9484 31.9907L55.5939 36.8174H52.8769L50.2976 33.1546Z" fill="white"/>
<path d="M62.3002 36.8174C62.2085 36.6405 62.1283 36.3524 62.0595 35.953C61.3946 36.6434 60.5806 36.9885 59.6177 36.9885C58.6834 36.9885 57.921 36.7233 57.3307 36.1927C56.7403 35.6621 56.4451 35.0059 56.4451 34.2243C56.4451 33.2373 56.8119 32.4813 57.5456 31.9564C58.285 31.4258 59.3397 31.1605 60.7096 31.1605H61.9907V30.5529C61.9907 30.0737 61.856 29.6914 61.5866 29.4061C61.3172 29.1152 60.9074 28.9697 60.3571 28.9697C59.8814 28.9697 59.4916 29.0895 59.1878 29.3291C58.884 29.563 58.7321 29.8626 58.7321 30.2277H56.6428C56.6428 29.7199 56.8119 29.2464 57.1501 28.8071C57.4883 28.3621 57.9468 28.014 58.5258 27.763C59.1104 27.512 59.761 27.3865 60.4775 27.3865C61.5665 27.3865 62.4349 27.6603 63.0826 28.208C63.7303 28.75 64.0628 29.5145 64.08 30.5016V34.6779C64.08 35.5109 64.1975 36.1755 64.4325 36.6719V36.8174H62.3002ZM60.0046 35.3197C60.4173 35.3197 60.8042 35.2199 61.1653 35.0202C61.5321 34.8205 61.8073 34.5524 61.9907 34.2158V32.4699H60.8644C60.0906 32.4699 59.5088 32.604 59.119 32.8721C58.7292 33.1403 58.5344 33.5197 58.5344 34.0104C58.5344 34.4097 58.6662 34.7292 58.9299 34.9689C59.1993 35.2028 59.5575 35.3197 60.0046 35.3197Z" fill="white"/>
<path d="M74.1739 27.5576V36.8174H72.0846V29.235H69.4537L69.2817 32.4614C69.1728 34.0132 68.8719 35.1286 68.3789 35.8075C67.8917 36.4808 67.1437 36.8174 66.1349 36.8174H65.49L65.4814 35.0887L65.9113 35.0459C66.3699 34.9831 66.7023 34.7064 66.9087 34.2158C67.1208 33.7194 67.2555 32.8179 67.3128 31.5114L67.4847 27.5576H74.1739Z" fill="white"/>
<path d="M78.6448 30.5016H80.6911C81.4534 30.5016 82.1183 30.6328 82.6858 30.8952C83.2533 31.1577 83.6831 31.5257 83.9755 31.9992C84.2735 32.4728 84.4226 33.0233 84.4226 33.6509C84.4226 34.6037 84.0844 35.3682 83.408 35.9445C82.7316 36.5207 81.8317 36.8117 80.7083 36.8174H76.5555V27.5576H78.6448V30.5016ZM78.6448 32.1704V35.1571H80.6825C81.1926 35.1571 81.5939 35.0316 81.8862 34.7806C82.1842 34.5238 82.3333 34.1615 82.3333 33.6937C82.3333 33.2259 82.1871 32.8579 81.8948 32.5897C81.6082 32.3159 81.2184 32.1761 80.7255 32.1704H78.6448Z" fill="white"/>
<path d="M93.9748 36.8174H91.8855V33.0775H88.2658V36.8174H86.1765V27.5576H88.2658V31.4173H91.8855V27.5576H93.9748V36.8174Z" fill="white"/>
<path d="M98.4543 30.5016H100.501C101.263 30.5016 101.928 30.6328 102.495 30.8952C103.063 31.1577 103.493 31.5257 103.785 31.9992C104.083 32.4728 104.232 33.0233 104.232 33.6509C104.232 34.6037 103.894 35.3682 103.218 35.9445C102.541 36.5207 101.641 36.8117 100.518 36.8174H96.365V27.5576H98.4543V30.5016ZM107.869 36.8174H105.78V27.5576H107.869V36.8174ZM98.4543 32.1704V35.1571H100.492C101.002 35.1571 101.403 35.0316 101.696 34.7806C101.994 34.5238 102.143 34.1615 102.143 33.6937C102.143 33.2259 101.997 32.8579 101.704 32.5897C101.418 32.3159 101.028 32.1761 100.535 32.1704H98.4543Z" fill="white"/>
<path d="M116.183 27.5576H118.264V36.8174H116.183V30.6385L112.538 36.8174H110.457V27.5576H112.538V33.7365L116.183 27.5576ZM117.163 24.006C117.163 24.7249 116.911 25.3069 116.407 25.7519C115.902 26.1969 115.229 26.4194 114.386 26.4194C113.544 26.4194 112.87 26.1969 112.366 25.7519C111.861 25.3069 111.609 24.7249 111.609 24.006H113.174C113.174 24.3826 113.28 24.6764 113.492 24.8875C113.71 25.0929 114.008 25.1956 114.386 25.1956C114.764 25.1956 115.06 25.0929 115.272 24.8875C115.484 24.6764 115.59 24.3826 115.59 24.006H117.163Z" fill="white"/>
<path d="M132.192 29.2093H129.175V36.8174H127.085V29.2093H124.102V27.5576H132.192V29.2093Z" fill="white"/>
<path d="M137.136 36.9885C135.812 36.9885 134.737 36.5749 133.912 35.7476C133.092 34.9147 132.682 33.8078 132.682 32.4271V32.1704C132.682 31.2461 132.86 30.4217 133.216 29.6971C133.577 28.9668 134.081 28.3992 134.729 27.9941C135.376 27.589 136.099 27.3865 136.895 27.3865C138.162 27.3865 139.139 27.7887 139.827 28.5931C140.521 29.3976 140.868 30.5358 140.868 32.0078V32.8465H134.789C134.852 33.611 135.107 34.2158 135.554 34.6608C136.007 35.1058 136.574 35.3283 137.257 35.3283C138.214 35.3283 138.993 34.9432 139.595 34.173L140.721 35.2427C140.349 35.7961 139.85 36.2269 139.225 36.535C138.606 36.8374 137.91 36.9885 137.136 36.9885ZM136.887 29.0553C136.314 29.0553 135.849 29.255 135.494 29.6543C135.144 30.0537 134.921 30.61 134.823 31.3231H138.804V31.1691C138.758 30.473 138.572 29.9482 138.245 29.5944C137.919 29.235 137.466 29.0553 136.887 29.0553Z" fill="white"/>
<path d="M148.055 36.8174C147.964 36.6405 147.883 36.3524 147.815 35.953C147.15 36.6434 146.336 36.9885 145.373 36.9885C144.439 36.9885 143.676 36.7233 143.086 36.1927C142.495 35.6621 142.2 35.0059 142.2 34.2243C142.2 33.2373 142.567 32.4813 143.301 31.9564C144.04 31.4258 145.095 31.1605 146.465 31.1605H147.746V30.5529C147.746 30.0737 147.611 29.6914 147.342 29.4061C147.072 29.1152 146.663 28.9697 146.112 28.9697C145.637 28.9697 145.247 29.0895 144.943 29.3291C144.639 29.563 144.487 29.8626 144.487 30.2277H142.398C142.398 29.7199 142.567 29.2464 142.905 28.8071C143.244 28.3621 143.702 28.014 144.281 27.763C144.866 27.512 145.516 27.3865 146.233 27.3865C147.322 27.3865 148.19 27.6603 148.838 28.208C149.486 28.75 149.818 29.5145 149.835 30.5016V34.6779C149.835 35.5109 149.953 36.1755 150.188 36.6719V36.8174H148.055ZM145.76 35.3197C146.173 35.3197 146.559 35.2199 146.921 35.0202C147.287 34.8205 147.563 34.5524 147.746 34.2158V32.4699H146.62C145.846 32.4699 145.264 32.604 144.874 32.8721C144.484 33.1403 144.29 33.5197 144.29 34.0104C144.29 34.4097 144.421 34.7292 144.685 34.9689C144.954 35.2028 145.313 35.3197 145.76 35.3197Z" fill="white"/>
<path d="M159.207 29.2093H156.189V36.8174H154.1V29.2093H151.116V27.5576H159.207V29.2093Z" fill="white"/>
<path d="M168.751 32.2816C168.751 33.7137 168.424 34.8576 167.77 35.7134C167.117 36.5635 166.24 36.9885 165.139 36.9885C164.119 36.9885 163.302 36.6548 162.689 35.9873V40.3775H160.6V27.5576H162.526L162.612 28.499C163.225 27.7573 164.059 27.3865 165.114 27.3865C166.249 27.3865 167.137 27.8086 167.779 28.653C168.427 29.4917 168.751 30.6585 168.751 32.1533V32.2816ZM166.67 32.1019C166.67 31.1777 166.484 30.4445 166.111 29.9025C165.744 29.3605 165.217 29.0895 164.529 29.0895C163.675 29.0895 163.062 29.4404 162.689 30.1421V34.25C163.067 34.9689 163.686 35.3283 164.546 35.3283C165.211 35.3283 165.73 35.063 166.102 34.5324C166.481 33.9961 166.67 33.1859 166.67 32.1019Z" fill="white"/>
<path d="M2.08928 51.7283H3.84325C3.99801 50.5473 4.45657 49.6031 5.21891 48.8956C5.98126 48.1881 6.94422 47.8344 8.1078 47.8344C9.36309 47.8344 10.3805 48.2366 11.16 49.0411C11.9453 49.8455 12.3695 50.9124 12.4325 52.2418L12.4411 52.7296C12.4411 53.6425 12.2634 54.4583 11.9081 55.1772C11.5584 55.8961 11.054 56.4523 10.3948 56.846C9.7414 57.2397 8.98478 57.4365 8.125 57.4365C6.92129 57.4365 5.93254 57.0657 5.15873 56.324C4.39065 55.5823 3.94643 54.6067 3.82606 53.3971H2.08928V57.2653H0V48.0056H2.08928V51.7283ZM5.88095 52.7296C5.88095 53.6824 6.0787 54.4298 6.4742 54.9718C6.8697 55.5081 7.41997 55.7762 8.125 55.7762C8.83002 55.7762 9.37742 55.5024 9.76719 54.9547C10.157 54.407 10.3518 53.6054 10.3518 52.5499C10.3518 51.5971 10.1484 50.8525 9.7414 50.3162C9.34016 49.7742 8.79563 49.5032 8.1078 49.5032C7.4257 49.5032 6.88403 49.7742 6.4828 50.3162C6.08157 50.8525 5.88095 51.657 5.88095 52.7296Z" fill="white"/>
<path d="M22.045 57.2653H19.9557V53.5255H16.336V57.2653H14.2467V48.0056H16.336V51.8652H19.9557V48.0056H22.045V57.2653Z" fill="white"/>
<path d="M23.8849 52.5499C23.8849 51.6427 24.0655 50.8269 24.4266 50.1023C24.7877 49.372 25.295 48.8129 25.9484 48.4249C26.6018 48.0312 27.3527 47.8344 28.201 47.8344C29.4563 47.8344 30.4737 48.2366 31.2533 49.0411C32.0386 49.8455 32.4627 50.9124 32.5258 52.2418L32.5344 52.7296C32.5344 53.6425 32.3567 54.4583 32.0013 55.1772C31.6517 55.8961 31.1472 56.4523 30.4881 56.846C29.8346 57.2397 29.078 57.4365 28.2182 57.4365C26.9056 57.4365 25.8538 57.0029 25.0628 56.1357C24.2775 55.2628 23.8849 54.1017 23.8849 52.6526V52.5499ZM25.9742 52.7296C25.9742 53.6824 26.1719 54.4298 26.5674 54.9718C26.9629 55.5081 27.5132 55.7762 28.2182 55.7762C28.9233 55.7762 29.4707 55.5024 29.8604 54.9547C30.2559 54.407 30.4537 53.6054 30.4537 52.5499C30.4537 51.6142 30.2502 50.8725 29.8432 50.3248C29.442 49.7771 28.8946 49.5032 28.201 49.5032C27.5189 49.5032 26.9773 49.7742 26.576 50.3162C26.1748 50.8525 25.9742 51.657 25.9742 52.7296Z" fill="white"/>
<path d="M40.496 49.6829H36.455V57.2653H34.3743V48.0056H40.496V49.6829Z" fill="white"/>
<path d="M41.1151 52.5499C41.1151 51.6427 41.2956 50.8269 41.6567 50.1023C42.0178 49.372 42.5251 48.8129 43.1785 48.4249C43.832 48.0312 44.5829 47.8344 45.4312 47.8344C46.6865 47.8344 47.7039 48.2366 48.4834 49.0411C49.2687 49.8455 49.6929 50.9124 49.7559 52.2418L49.7645 52.7296C49.7645 53.6425 49.5868 54.4583 49.2314 55.1772C48.8818 55.8961 48.3774 56.4523 47.7182 56.846C47.0648 57.2397 46.3082 57.4365 45.4484 57.4365C44.1358 57.4365 43.084 57.0029 42.293 56.1357C41.5077 55.2628 41.1151 54.1017 41.1151 52.6526V52.5499ZM43.2043 52.7296C43.2043 53.6824 43.4021 54.4298 43.7976 54.9718C44.1931 55.5081 44.7434 55.7762 45.4484 55.7762C46.1534 55.7762 46.7008 55.5024 47.0906 54.9547C47.4861 54.407 47.6838 53.6054 47.6838 52.5499C47.6838 51.6142 47.4803 50.8725 47.0734 50.3248C46.6721 49.7771 46.1247 49.5032 45.4312 49.5032C44.7491 49.5032 44.2074 49.7742 43.8062 50.3162C43.405 50.8525 43.2043 51.657 43.2043 52.7296Z" fill="white"/>
<path d="M61.4748 57.2653C61.3831 57.0885 61.3029 56.8004 61.2341 56.401C60.5692 57.0913 59.7552 57.4365 58.7923 57.4365C57.858 57.4365 57.0956 57.1712 56.5053 56.6406C55.9149 56.11 55.6197 55.4539 55.6197 54.6723C55.6197 53.6852 55.9865 52.9293 56.7202 52.4044C57.4596 51.8738 58.5143 51.6085 59.8842 51.6085H61.1653V51.0009C61.1653 50.5216 61.0306 50.1394 60.7612 49.8541C60.4918 49.5631 60.082 49.4176 59.5317 49.4176C59.056 49.4176 58.6662 49.5375 58.3624 49.7771C58.0586 50.011 57.9067 50.3105 57.9067 50.6757H55.8174C55.8174 50.1679 55.9865 49.6944 56.3247 49.255C56.6629 48.81 57.1214 48.462 57.7004 48.211C58.285 47.9599 58.9356 47.8344 59.6521 47.8344C60.7411 47.8344 61.6095 48.1083 62.2572 48.656C62.9049 49.198 63.2374 49.9625 63.2546 50.9495V55.1258C63.2546 55.9588 63.3721 56.6235 63.6071 57.1199V57.2653H61.4748ZM59.1792 55.7677C59.5919 55.7677 59.9788 55.6679 60.3399 55.4682C60.7067 55.2685 60.9819 55.0003 61.1653 54.6637V52.9179H60.039C59.2652 52.9179 58.6834 53.0519 58.2936 53.3201C57.9038 53.5882 57.709 53.9677 57.709 54.4583C57.709 54.8577 57.8408 55.1772 58.1045 55.4168C58.3739 55.6507 58.7321 55.7677 59.1792 55.7677Z" fill="white"/>
<path d="M68.7486 53.6025H67.6911V57.2653H65.6018V48.0056H67.6911V51.7026H68.6111L71.1818 48.0056H73.7612L70.3994 52.4386L74.0449 57.2653H71.328L68.7486 53.6025Z" fill="white"/>
<path d="M82.5138 49.6573H79.496V57.2653H77.4067V49.6573H74.4232V48.0056H82.5138V49.6573Z" fill="white"/>
<path d="M87.4576 57.4365C86.1335 57.4365 85.0588 57.0229 84.2334 56.1956C83.4137 55.3626 83.0039 54.2558 83.0039 52.8751V52.6183C83.0039 51.6941 83.1816 50.8697 83.537 50.1451C83.8981 49.4148 84.4025 48.8471 85.0502 48.442C85.6979 48.037 86.4201 47.8344 87.2169 47.8344C88.4836 47.8344 89.4609 48.2366 90.1488 49.0411C90.8423 49.8455 91.1891 50.9838 91.1891 52.4557V53.2944H85.1104C85.1734 54.0589 85.4285 54.6637 85.8756 55.1087C86.3284 55.5537 86.8959 55.7762 87.578 55.7762C88.5352 55.7762 89.3148 55.3911 89.9166 54.6209L91.0429 55.6907C90.6703 56.2441 90.1717 56.6748 89.5469 56.9829C88.9279 57.2853 88.2314 57.4365 87.4576 57.4365ZM87.2083 49.5032C86.6351 49.5032 86.1708 49.7029 85.8154 50.1023C85.4658 50.5017 85.2422 51.0579 85.1448 51.7711H89.1256V51.6171C89.0797 50.921 88.8935 50.3961 88.5667 50.0424C88.24 49.6829 87.7872 49.5032 87.2083 49.5032ZM84.0185 45.5751C84.0185 45.2898 84.113 45.0502 84.3022 44.8562C84.4971 44.6622 84.7636 44.5653 85.1018 44.5653C85.44 44.5653 85.7065 44.6622 85.9014 44.8562C86.0963 45.0502 86.1937 45.2898 86.1937 45.5751C86.1937 45.8604 86.0963 46.1 85.9014 46.294C85.7065 46.4879 85.44 46.5849 85.1018 46.5849C84.7636 46.5849 84.4971 46.4879 84.3022 46.294C84.113 46.1 84.0185 45.8604 84.0185 45.5751ZM87.9477 45.5836C87.9477 45.2984 88.0423 45.0588 88.2314 44.8648C88.4263 44.6708 88.6928 44.5738 89.031 44.5738C89.3692 44.5738 89.6357 44.6708 89.8306 44.8648C90.0255 45.0588 90.123 45.2984 90.123 45.5836C90.123 45.8689 90.0255 46.1085 89.8306 46.3025C89.6357 46.4965 89.3692 46.5935 89.031 46.5935C88.6928 46.5935 88.4263 46.4965 88.2314 46.3025C88.0423 46.1085 87.9477 45.8689 87.9477 45.5836Z" fill="white"/>
<path d="M100.965 52.7296C100.965 54.1616 100.638 55.3056 99.9847 56.1614C99.3313 57.0115 98.4543 57.4365 97.3538 57.4365C96.3335 57.4365 95.5167 57.1027 94.9034 56.4352V60.8255H92.8141V48.0056H94.74L94.826 48.947C95.4393 48.2053 96.2733 47.8344 97.328 47.8344C98.4629 47.8344 99.3513 48.2566 99.9933 49.101C100.641 49.9397 100.965 51.1064 100.965 52.6012V52.7296ZM98.8842 52.5499C98.8842 51.6256 98.6979 50.8925 98.3253 50.3505C97.9585 49.8085 97.4312 49.5375 96.7433 49.5375C95.8893 49.5375 95.2759 49.8883 94.9034 50.5901V54.6979C95.2817 55.4168 95.9007 55.7762 96.7605 55.7762C97.4254 55.7762 97.9442 55.511 98.3167 54.9804C98.695 54.444 98.8842 53.6339 98.8842 52.5499Z" fill="white"/>
<path d="M108.299 57.2653C108.207 57.0885 108.127 56.8004 108.058 56.401C107.393 57.0913 106.579 57.4365 105.616 57.4365C104.682 57.4365 103.92 57.1712 103.329 56.6406C102.739 56.11 102.444 55.4539 102.444 54.6723C102.444 53.6852 102.811 52.9293 103.544 52.4044C104.284 51.8738 105.338 51.6085 106.708 51.6085H107.989V51.0009C107.989 50.5216 107.855 50.1394 107.585 49.8541C107.316 49.5631 106.906 49.4176 106.356 49.4176C105.88 49.4176 105.49 49.5375 105.186 49.7771C104.883 50.011 104.731 50.3105 104.731 50.6757H102.641C102.641 50.1679 102.811 49.6944 103.149 49.255C103.487 48.81 103.945 48.462 104.524 48.211C105.109 47.9599 105.76 47.8344 106.476 47.8344C107.565 47.8344 108.434 48.1083 109.081 48.656C109.729 49.198 110.061 49.9625 110.079 50.9495V55.1258C110.079 55.9588 110.196 56.6235 110.431 57.1199V57.2653H108.299ZM106.003 55.7677C106.416 55.7677 106.803 55.6679 107.164 55.4682C107.531 55.2685 107.806 55.0003 107.989 54.6637V52.9179H106.863C106.089 52.9179 105.507 53.0519 105.118 53.3201C104.728 53.5882 104.533 53.9677 104.533 54.4583C104.533 54.8577 104.665 55.1772 104.928 55.4168C105.198 55.6507 105.556 55.7677 106.003 55.7677Z" fill="white"/>
</g>
</svg>
