<svg width="22" height="33" viewBox="0 0 22 33" fill="none" xmlns="http://www.w3.org/2000/svg">
<path d="M2.52632 0H19.4737C20.8667 0 22 1.11524 22 2.48605V30.514C22 31.8848 20.8667 33 19.4737 33H2.52632C1.1333 33 0 31.8848 0 30.514V2.48605C0 1.11524 1.1333 0 2.52632 0ZM19.4737 1.65737H2.52632C2.06198 1.65737 1.68421 2.02911 1.68421 2.48605V3.34236H20.3158V2.48605C20.3158 2.02911 19.938 1.65737 19.4737 1.65737ZM20.3158 28.0003V23.9858H15.2281V28.0003H20.3158ZM13.5439 23.9858H8.45614V28.0003H13.5439V23.9858ZM6.77193 23.9858H1.68421V28.0003H6.77193V23.9858ZM20.3158 22.3284V4.99972H1.68421V22.3284H20.3158ZM2.52632 31.3426H19.4737C19.938 31.3426 20.3158 30.9709 20.3158 30.514V29.6576H1.68421V30.514C1.68421 30.9709 2.06198 31.3426 2.52632 31.3426Z" fill="white"/>
<path d="M7.89474 13.1243V11.5003C7.89474 10.1295 9.60699 9.01423 11 9.01423C12.393 9.01423 14.1053 10.1295 14.1053 11.5003V13.1243C15.1723 13.9057 15.8175 16.3266 15.8175 17.6509V18.4796H6.18246V17.6509C6.18246 16.3265 6.82768 13.9056 7.89474 13.1243ZM13.9895 16.8223C13.7885 16.2592 13.3866 14.5947 12.8448 14.2895L12.4211 14.0508V11.5003C12.4211 11.0433 11.4643 10.6716 11 10.6716C10.5357 10.6716 9.57895 11.0433 9.57895 11.5003V14.0508L9.1552 14.2895C8.61339 14.5946 8.21148 16.2591 8.0105 16.8223H13.9895Z" fill="white"/>
</svg>
