<svg width="26" height="32" viewBox="0 0 26 32" fill="none" xmlns="http://www.w3.org/2000/svg">
<path fill-rule="evenodd" clip-rule="evenodd" d="M25.068 0.827616C24.4979 0.580942 23.8263 0.676854 23.36 1.07144L21.1465 2.91288L18.135 0.381925C17.53 -0.127308 16.614 -0.127308 16.009 0.381925L13 2.91048L9.9902 0.381925C9.38502 -0.127308 8.46897 -0.127308 7.86379 0.381925L4.85148 2.91288L2.63591 1.07152C1.98217 0.525568 0.981093 0.580942 0.400005 1.19515C0.139847 1.47015 -0.00267365 1.826 3.79944e-05 2.19391V29.8061C-0.00514602 30.6291 0.700757 31.3001 1.5767 31.305C1.96837 31.3072 2.34712 31.1731 2.6399 30.9286L4.85339 29.0871L7.86491 31.6181C8.46992 32.1273 9.3859 32.1273 9.99091 31.6181L13 29.0892L16.0095 31.6178C16.6147 32.1269 17.5307 32.1269 18.1359 31.6178L21.1482 29.0869L23.3638 30.9283C24.0174 31.4744 25.0185 31.4192 25.5997 30.8051C25.8601 30.53 26.0026 30.1739 25.9999 29.8058V2.19391C26.0078 1.60443 25.6413 1.06717 25.068 0.827616ZM3.79825 4.03527C4.40334 4.53889 5.31413 4.53664 5.91636 4.02995L8.92779 1.49908L11.9369 4.02763C12.542 4.53686 13.4581 4.53686 14.0632 4.02763L17.0726 1.49908L20.0853 4.02995C20.6852 4.53656 21.5944 4.53889 22.1973 4.03535L24.4048 2.19391L24.4097 19.2507H1.59207L1.59135 15.7492H20.5601C21.0006 15.7492 21.3576 15.4137 21.3576 14.9998C21.3576 14.586 21.0005 14.2505 20.5601 14.2505H1.59092L1.59012 11.5H14.5601C15.0006 11.5 15.3576 11.1645 15.3576 10.7507C15.3576 10.3368 15.0005 10.0014 14.5601 10.0014H1.58969V2.19641L3.79825 4.03527ZM20.0836 27.9697C20.6858 27.4631 21.5966 27.4608 22.2017 27.9644L24.4128 29.8054L24.4102 20.7493H1.59512V29.8053L3.80263 27.9644C4.4055 27.4608 5.31469 27.4631 5.9146 27.9697L8.92731 30.5006L11.9368 27.9721C12.5418 27.4628 13.4579 27.4628 14.063 27.9721L17.0721 30.5006L20.0836 27.9697Z" fill="black"/>
</svg>
